G04 #@! TF.GenerationSoftware,KiCad,Pcbnew,7.0.7*
G04 #@! TF.CreationDate,2023-09-04T22:31:34-04:00*
G04 #@! TF.ProjectId,k1-aioc,6b312d61-696f-4632-9e6b-696361645f70,rev?*
G04 #@! TF.SameCoordinates,Original*
G04 #@! TF.FileFunction,Paste,Top*
G04 #@! TF.FilePolarity,Positive*
%FSLAX46Y46*%
G04 Gerber Fmt 4.6, Leading zero omitted, Abs format (unit mm)*
G04 Created by KiCad (PCBNEW 7.0.7) date 2023-09-04 22:31:34*
%MOMM*%
%LPD*%
G01*
G04 APERTURE LIST*
G04 Aperture macros list*
%AMRoundRect*
0 Rectangle with rounded corners*
0 $1 Rounding radius*
0 $2 $3 $4 $5 $6 $7 $8 $9 X,Y pos of 4 corners*
0 Add a 4 corners polygon primitive as box body*
4,1,4,$2,$3,$4,$5,$6,$7,$8,$9,$2,$3,0*
0 Add four circle primitives for the rounded corners*
1,1,$1+$1,$2,$3*
1,1,$1+$1,$4,$5*
1,1,$1+$1,$6,$7*
1,1,$1+$1,$8,$9*
0 Add four rect primitives between the rounded corners*
20,1,$1+$1,$2,$3,$4,$5,0*
20,1,$1+$1,$4,$5,$6,$7,0*
20,1,$1+$1,$6,$7,$8,$9,0*
20,1,$1+$1,$8,$9,$2,$3,0*%
G04 Aperture macros list end*
%ADD10C,0.300000*%
%ADD11RoundRect,0.225000X0.250000X-0.225000X0.250000X0.225000X-0.250000X0.225000X-0.250000X-0.225000X0*%
%ADD12RoundRect,0.135000X0.135000X0.185000X-0.135000X0.185000X-0.135000X-0.185000X0.135000X-0.185000X0*%
%ADD13RoundRect,0.218750X0.218750X0.256250X-0.218750X0.256250X-0.218750X-0.256250X0.218750X-0.256250X0*%
%ADD14RoundRect,0.140000X0.140000X0.170000X-0.140000X0.170000X-0.140000X-0.170000X0.140000X-0.170000X0*%
%ADD15RoundRect,0.135000X-0.135000X-0.185000X0.135000X-0.185000X0.135000X0.185000X-0.135000X0.185000X0*%
%ADD16R,0.300000X0.700000*%
%ADD17RoundRect,0.140000X-0.140000X-0.170000X0.140000X-0.170000X0.140000X0.170000X-0.140000X0.170000X0*%
%ADD18RoundRect,0.218750X-0.218750X-0.256250X0.218750X-0.256250X0.218750X0.256250X-0.218750X0.256250X0*%
%ADD19RoundRect,0.140000X-0.170000X0.140000X-0.170000X-0.140000X0.170000X-0.140000X0.170000X0.140000X0*%
%ADD20RoundRect,0.135000X-0.185000X0.135000X-0.185000X-0.135000X0.185000X-0.135000X0.185000X0.135000X0*%
%ADD21RoundRect,0.218750X0.256250X-0.218750X0.256250X0.218750X-0.256250X0.218750X-0.256250X-0.218750X0*%
%ADD22RoundRect,0.075000X0.075000X-0.662500X0.075000X0.662500X-0.075000X0.662500X-0.075000X-0.662500X0*%
%ADD23RoundRect,0.075000X0.662500X-0.075000X0.662500X0.075000X-0.662500X0.075000X-0.662500X-0.075000X0*%
%ADD24RoundRect,0.140000X0.170000X-0.140000X0.170000X0.140000X-0.170000X0.140000X-0.170000X-0.140000X0*%
%ADD25RoundRect,0.150000X0.587500X0.150000X-0.587500X0.150000X-0.587500X-0.150000X0.587500X-0.150000X0*%
%ADD26RoundRect,0.225000X-0.250000X0.225000X-0.250000X-0.225000X0.250000X-0.225000X0.250000X0.225000X0*%
%ADD27RoundRect,0.150000X-0.587500X-0.150000X0.587500X-0.150000X0.587500X0.150000X-0.587500X0.150000X0*%
%ADD28RoundRect,0.225000X-0.225000X-0.250000X0.225000X-0.250000X0.225000X0.250000X-0.225000X0.250000X0*%
%ADD29RoundRect,0.135000X0.185000X-0.135000X0.185000X0.135000X-0.185000X0.135000X-0.185000X-0.135000X0*%
%ADD30RoundRect,0.120000X-0.120000X0.120000X-0.120000X-0.120000X0.120000X-0.120000X0.120000X0.120000X0*%
%ADD31RoundRect,0.062500X-0.062500X0.312500X-0.062500X-0.312500X0.062500X-0.312500X0.062500X0.312500X0*%
%ADD32R,2.000000X2.400000*%
G04 APERTURE END LIST*
D10*
X88350000Y-99300000D02*
X88900000Y-99300000D01*
X88900000Y-100400000D01*
X88350000Y-100400000D01*
X88350000Y-99300000D01*
G36*
X88350000Y-99300000D02*
G01*
X88900000Y-99300000D01*
X88900000Y-100400000D01*
X88350000Y-100400000D01*
X88350000Y-99300000D01*
G37*
X88000000Y-93350000D02*
X88550000Y-93350000D01*
X88550000Y-94450000D01*
X88000000Y-94450000D01*
X88000000Y-93350000D01*
G36*
X88000000Y-93350000D02*
G01*
X88550000Y-93350000D01*
X88550000Y-94450000D01*
X88000000Y-94450000D01*
X88000000Y-93350000D01*
G37*
X96950000Y-93350000D02*
X97500000Y-93350000D01*
X97500000Y-94450000D01*
X96950000Y-94450000D01*
X96950000Y-93350000D01*
G36*
X96950000Y-93350000D02*
G01*
X97500000Y-93350000D01*
X97500000Y-94450000D01*
X96950000Y-94450000D01*
X96950000Y-93350000D01*
G37*
X96600000Y-99300000D02*
X97150000Y-99300000D01*
X97150000Y-100400000D01*
X96600000Y-100400000D01*
X96600000Y-99300000D01*
G36*
X96600000Y-99300000D02*
G01*
X97150000Y-99300000D01*
X97150000Y-100400000D01*
X96600000Y-100400000D01*
X96600000Y-99300000D01*
G37*
D11*
G04 #@! TO.C,C6*
X87500000Y-105025000D03*
X87500000Y-103475000D03*
G04 #@! TD*
D12*
G04 #@! TO.C,R2*
X101020000Y-114500000D03*
X100000000Y-114500000D03*
G04 #@! TD*
D13*
G04 #@! TO.C,D2*
X87537500Y-116650000D03*
X85962500Y-116650000D03*
G04 #@! TD*
D14*
G04 #@! TO.C,C11*
X100430000Y-105350000D03*
X99470000Y-105350000D03*
G04 #@! TD*
D15*
G04 #@! TO.C,R15*
X86040000Y-113850000D03*
X87060000Y-113850000D03*
G04 #@! TD*
D16*
G04 #@! TO.C,J1*
X95500000Y-101770000D03*
X95000000Y-101770000D03*
X94500000Y-101770000D03*
X94000000Y-101770000D03*
X93500000Y-101770000D03*
X93000000Y-101770000D03*
X92500000Y-101770000D03*
X92000000Y-101770000D03*
X91500000Y-101770000D03*
X91000000Y-101770000D03*
X90500000Y-101770000D03*
X90000000Y-101770000D03*
X90250000Y-100070000D03*
X90750000Y-100070000D03*
X91250000Y-100070000D03*
X91750000Y-100070000D03*
X92250000Y-100070000D03*
X92750000Y-100070000D03*
X93250000Y-100070000D03*
X93750000Y-100070000D03*
X94250000Y-100070000D03*
X94750000Y-100070000D03*
X95250000Y-100070000D03*
X95750000Y-100070000D03*
G04 #@! TD*
D15*
G04 #@! TO.C,R21*
X97840000Y-124650000D03*
X98860000Y-124650000D03*
G04 #@! TD*
D17*
G04 #@! TO.C,C1*
X87470000Y-122250000D03*
X88430000Y-122250000D03*
G04 #@! TD*
D12*
G04 #@! TO.C,R22*
X93060000Y-118850000D03*
X92040000Y-118850000D03*
G04 #@! TD*
D18*
G04 #@! TO.C,D1*
X85962500Y-115050000D03*
X87537500Y-115050000D03*
G04 #@! TD*
D19*
G04 #@! TO.C,C9*
X95150000Y-117970000D03*
X95150000Y-118930000D03*
G04 #@! TD*
D15*
G04 #@! TO.C,R18*
X95940000Y-123550000D03*
X96960000Y-123550000D03*
G04 #@! TD*
D17*
G04 #@! TO.C,C12*
X102030000Y-115500000D03*
X102990000Y-115500000D03*
G04 #@! TD*
D20*
G04 #@! TO.C,R13*
X99150000Y-117940000D03*
X99150000Y-118960000D03*
G04 #@! TD*
D21*
G04 #@! TO.C,FB2*
X89000000Y-105037500D03*
X89000000Y-103462500D03*
G04 #@! TD*
D20*
G04 #@! TO.C,R8*
X96000000Y-104240000D03*
X96000000Y-105260000D03*
G04 #@! TD*
G04 #@! TO.C,R11*
X97150000Y-117940000D03*
X97150000Y-118960000D03*
G04 #@! TD*
G04 #@! TO.C,R9*
X94500000Y-104240000D03*
X94500000Y-105260000D03*
G04 #@! TD*
D22*
G04 #@! TO.C,U2*
X91250000Y-116162500D03*
X91750000Y-116162500D03*
X92250000Y-116162500D03*
X92750000Y-116162500D03*
X93250000Y-116162500D03*
X93750000Y-116162500D03*
X94250000Y-116162500D03*
X94750000Y-116162500D03*
X95250000Y-116162500D03*
X95750000Y-116162500D03*
X96250000Y-116162500D03*
X96750000Y-116162500D03*
D23*
X98162500Y-114750000D03*
X98162500Y-114250000D03*
X98162500Y-113750000D03*
X98162500Y-113250000D03*
X98162500Y-112750000D03*
X98162500Y-112250000D03*
X98162500Y-111750000D03*
X98162500Y-111250000D03*
X98162500Y-110750000D03*
X98162500Y-110250000D03*
X98162500Y-109750000D03*
X98162500Y-109250000D03*
D22*
X96750000Y-107837500D03*
X96250000Y-107837500D03*
X95750000Y-107837500D03*
X95250000Y-107837500D03*
X94750000Y-107837500D03*
X94250000Y-107837500D03*
X93750000Y-107837500D03*
X93250000Y-107837500D03*
X92750000Y-107837500D03*
X92250000Y-107837500D03*
X91750000Y-107837500D03*
X91250000Y-107837500D03*
D23*
X89837500Y-109250000D03*
X89837500Y-109750000D03*
X89837500Y-110250000D03*
X89837500Y-110750000D03*
X89837500Y-111250000D03*
X89837500Y-111750000D03*
X89837500Y-112250000D03*
X89837500Y-112750000D03*
X89837500Y-113250000D03*
X89837500Y-113750000D03*
X89837500Y-114250000D03*
X89837500Y-114750000D03*
G04 #@! TD*
D12*
G04 #@! TO.C,R20*
X98860000Y-123550000D03*
X97840000Y-123550000D03*
G04 #@! TD*
G04 #@! TO.C,R4*
X103020000Y-114500000D03*
X102000000Y-114500000D03*
G04 #@! TD*
D21*
G04 #@! TO.C,FB1*
X87500000Y-111537500D03*
X87500000Y-109962500D03*
G04 #@! TD*
D24*
G04 #@! TO.C,C3*
X86000000Y-104730000D03*
X86000000Y-103770000D03*
G04 #@! TD*
D14*
G04 #@! TO.C,C2*
X90430000Y-122250000D03*
X89470000Y-122250000D03*
G04 #@! TD*
D20*
G04 #@! TO.C,R10*
X96150000Y-117940000D03*
X96150000Y-118960000D03*
G04 #@! TD*
D11*
G04 #@! TO.C,C4*
X89000000Y-108025000D03*
X89000000Y-106475000D03*
G04 #@! TD*
D25*
G04 #@! TO.C,Q4*
X98387500Y-128000000D03*
X98387500Y-126100000D03*
X96512500Y-127050000D03*
G04 #@! TD*
D15*
G04 #@! TO.C,R1*
X91490000Y-104750000D03*
X92510000Y-104750000D03*
G04 #@! TD*
D26*
G04 #@! TO.C,C5*
X86000000Y-109975000D03*
X86000000Y-111525000D03*
G04 #@! TD*
D27*
G04 #@! TO.C,Q1*
X92412500Y-120300000D03*
X92412500Y-122200000D03*
X94287500Y-121250000D03*
G04 #@! TD*
D28*
G04 #@! TO.C,C14*
X102775000Y-104950000D03*
X104325000Y-104950000D03*
G04 #@! TD*
D12*
G04 #@! TO.C,R17*
X101020000Y-115500000D03*
X100000000Y-115500000D03*
G04 #@! TD*
D15*
G04 #@! TO.C,R5*
X99440000Y-104350000D03*
X100460000Y-104350000D03*
G04 #@! TD*
D29*
G04 #@! TO.C,R23*
X89850000Y-117260000D03*
X89850000Y-116240000D03*
G04 #@! TD*
D19*
G04 #@! TO.C,C15*
X94100000Y-117970000D03*
X94100000Y-118930000D03*
G04 #@! TD*
D28*
G04 #@! TO.C,C7*
X100225000Y-113250000D03*
X101775000Y-113250000D03*
G04 #@! TD*
D19*
G04 #@! TO.C,C8*
X88850000Y-116270000D03*
X88850000Y-117230000D03*
G04 #@! TD*
D30*
G04 #@! TO.C,U1*
X87050000Y-107500000D03*
X86450000Y-107500000D03*
D31*
X87500000Y-106525000D03*
X87000000Y-106525000D03*
X86500000Y-106525000D03*
X86000000Y-106525000D03*
X86000000Y-108475000D03*
X86500000Y-108475000D03*
X87000000Y-108475000D03*
X87500000Y-108475000D03*
G04 #@! TD*
D15*
G04 #@! TO.C,R16*
X99490000Y-106350000D03*
X100510000Y-106350000D03*
G04 #@! TD*
D12*
G04 #@! TO.C,R19*
X96960000Y-124650000D03*
X95940000Y-124650000D03*
G04 #@! TD*
D15*
G04 #@! TO.C,R3*
X99490000Y-107350000D03*
X100510000Y-107350000D03*
G04 #@! TD*
D11*
G04 #@! TO.C,C10*
X97500000Y-105525000D03*
X97500000Y-103975000D03*
G04 #@! TD*
D15*
G04 #@! TO.C,R14*
X86040000Y-112850000D03*
X87060000Y-112850000D03*
G04 #@! TD*
D29*
G04 #@! TO.C,R6*
X98650000Y-100760000D03*
X98650000Y-99740000D03*
G04 #@! TD*
D26*
G04 #@! TO.C,C13*
X100500000Y-117725000D03*
X100500000Y-119275000D03*
G04 #@! TD*
D32*
G04 #@! TO.C,Y1*
X86300000Y-119650000D03*
X90000000Y-119650000D03*
G04 #@! TD*
D20*
G04 #@! TO.C,R12*
X98150000Y-117940000D03*
X98150000Y-118960000D03*
G04 #@! TD*
G04 #@! TO.C,R7*
X98650000Y-101640000D03*
X98650000Y-102660000D03*
G04 #@! TD*
D27*
G04 #@! TO.C,Q3*
X96412500Y-120300000D03*
X96412500Y-122200000D03*
X98287500Y-121250000D03*
G04 #@! TD*
M02*
