%TF.GenerationSoftware,KiCad,Pcbnew,7.0.7*%
%TF.CreationDate,2023-09-04T22:31:29-04:00*%
%TF.ProjectId,k1-aioc,6b312d61-696f-4632-9e6b-696361645f70,rev?*%
%TF.SameCoordinates,Original*%
%TF.FileFunction,Plated,1,4,PTH,Mixed*%
%TF.FilePolarity,Positive*%
%FSLAX46Y46*%
G04 Gerber Fmt 4.6, Leading zero omitted, Abs format (unit mm)*
G04 Created by KiCad (PCBNEW 7.0.7) date 2023-09-04 22:31:29*
%MOMM*%
%LPD*%
G01*
G04 APERTURE LIST*
%TA.AperFunction,ViaDrill*%
%ADD10C,0.150000*%
%TD*%
%TA.AperFunction,ViaDrill*%
%ADD11C,0.300000*%
%TD*%
G04 aperture for slot hole*
%TA.AperFunction,ComponentDrill*%
%ADD12O,0.500000X1.100000*%
%TD*%
%TA.AperFunction,ComponentDrill*%
%ADD13C,0.750000*%
%TD*%
%TA.AperFunction,ComponentDrill*%
%ADD14C,2.200000*%
%TD*%
G04 APERTURE END LIST*
D10*
X85250000Y-94750000D03*
X85250000Y-97250000D03*
X85250000Y-100750000D03*
X85250000Y-109250000D03*
X85250000Y-111250000D03*
X85250000Y-112250000D03*
X85250000Y-113750000D03*
X85250000Y-115050000D03*
X85250000Y-115750000D03*
X85250000Y-116650000D03*
X85500000Y-99250000D03*
X86250000Y-103750000D03*
X86750000Y-115750000D03*
X87000000Y-98500000D03*
X87000000Y-99750000D03*
X87250000Y-93250000D03*
X87250000Y-103000000D03*
X87447766Y-112840223D03*
X87537500Y-115850000D03*
X88147917Y-112647917D03*
X88250000Y-117500000D03*
X88250000Y-119000000D03*
X88250000Y-120250000D03*
X88350000Y-105950000D03*
X88357558Y-97860443D03*
X88550000Y-97399500D03*
X88550000Y-110250000D03*
X88750000Y-115250000D03*
X88950000Y-114250000D03*
X88950000Y-122250000D03*
X89000000Y-127750000D03*
X89250000Y-93250000D03*
X89250000Y-125000000D03*
X89350000Y-98449500D03*
X89750000Y-131750000D03*
X89850000Y-116240000D03*
X90350000Y-117350000D03*
X90564548Y-110744564D03*
X90922394Y-112632761D03*
X91000000Y-129500000D03*
X91250000Y-93250000D03*
X91399992Y-122200000D03*
X91442254Y-114646670D03*
X91500000Y-111250000D03*
X91550000Y-112650000D03*
X92150000Y-118350000D03*
X92750000Y-115050000D03*
X93250000Y-119250000D03*
X93500000Y-111000000D03*
X93650000Y-120450000D03*
X93750000Y-93250000D03*
X94250000Y-110250000D03*
X94250000Y-129750000D03*
X94338531Y-115241177D03*
X94650000Y-118850000D03*
X94746904Y-116871878D03*
X94750000Y-107050000D03*
X94750000Y-131750000D03*
X95250000Y-128250000D03*
X95550000Y-100850000D03*
X95750000Y-93250000D03*
X95750000Y-107050000D03*
X95750000Y-122250000D03*
X95850000Y-125250000D03*
X95950000Y-114050000D03*
X96000000Y-103550000D03*
X96150000Y-108850000D03*
X96250000Y-102950000D03*
X96320183Y-112299695D03*
X96750000Y-129500000D03*
X96968822Y-117032425D03*
X97050000Y-114950000D03*
X97050000Y-123150000D03*
X97150000Y-113650000D03*
X97250000Y-131750000D03*
X98050000Y-115850000D03*
X98050000Y-126550000D03*
X98450000Y-115350000D03*
X98750000Y-93250000D03*
X98750000Y-111749500D03*
X98950000Y-105050000D03*
X99000000Y-117500000D03*
X99174021Y-113433370D03*
X99250000Y-115850000D03*
X99350000Y-108550000D03*
X100950000Y-112650000D03*
X101150000Y-123050000D03*
X101450000Y-105050000D03*
X104950000Y-107650000D03*
D11*
X86450000Y-107500000D03*
X86750000Y-110750000D03*
X87050000Y-107500000D03*
X88500000Y-111300000D03*
X88550000Y-109375735D03*
X91000000Y-106569338D03*
X91300000Y-103750000D03*
X91850000Y-105616006D03*
X91850000Y-106524076D03*
X92035571Y-110144564D03*
X92250000Y-109250000D03*
X92600000Y-103250000D03*
X92600000Y-106000000D03*
X93400000Y-103250000D03*
X93400000Y-106000000D03*
X93750000Y-112000000D03*
X95250000Y-104750000D03*
X95345038Y-111725975D03*
X95500000Y-109133029D03*
X97750000Y-107250000D03*
D12*
%TO.C,J1*%
X88260000Y-93910000D03*
X88620000Y-99860000D03*
X96880000Y-99860000D03*
X97240000Y-93910000D03*
D13*
%TO.C,J4*%
X86950000Y-126250000D03*
X88950000Y-126250000D03*
%TO.C,J5*%
X89750000Y-95050000D03*
%TO.C,J4*%
X90950000Y-126250000D03*
%TO.C,J5*%
X91750000Y-95050000D03*
%TO.C,J3*%
X91750000Y-131250000D03*
%TO.C,J4*%
X92950000Y-126250000D03*
%TO.C,J5*%
X93750000Y-95050000D03*
%TO.C,J3*%
X93750000Y-131250000D03*
%TO.C,J5*%
X95750000Y-95050000D03*
%TO.C,J3*%
X95750000Y-131250000D03*
D14*
%TO.C,H4*%
X86750000Y-131250000D03*
%TO.C,H3*%
X100750000Y-97250000D03*
M02*
