%TF.GenerationSoftware,KiCad,Pcbnew,7.0.7*%
%TF.CreationDate,2023-09-04T22:31:28-04:00*%
%TF.ProjectId,k1-aioc,6b312d61-696f-4632-9e6b-696361645f70,rev?*%
%TF.SameCoordinates,Original*%
%TF.FileFunction,Drillmap*%
%TF.FilePolarity,Positive*%
%FSLAX45Y45*%
G04 Gerber Fmt 4.5, Leading zero omitted, Abs format (unit mm)*
G04 Created by KiCad (PCBNEW 7.0.7) date 2023-09-04 22:31:28*
%MOMM*%
%LPD*%
G01*
G04 APERTURE LIST*
%ADD10C,0.100000*%
%ADD11C,0.200000*%
%ADD12C,0.050000*%
%ADD13C,0.065000*%
%ADD14C,0.099060*%
%ADD15C,0.115200*%
G04 APERTURE END LIST*
D10*
X10575000Y-11175000D02*
X10575000Y-10450000D01*
X10525000Y-12425000D02*
X10125000Y-12425000D01*
X8475000Y-12300000D02*
X8475000Y-9400000D01*
X10300000Y-10400000D02*
X10525000Y-10400000D01*
X10475000Y-11275000D02*
G75*
G03*
X10575000Y-11175000I0J100000D01*
G01*
X10025000Y-12525000D02*
X10025000Y-13325000D01*
X8475000Y-13325000D02*
G75*
G03*
X8575000Y-13425000I100000J0D01*
G01*
X10525000Y-12425000D02*
G75*
G03*
X10575000Y-12375000I0J50000D01*
G01*
X10575000Y-11675000D02*
X10575000Y-12375000D01*
X10300000Y-10400000D02*
X10075000Y-10175000D01*
X10075000Y-9400000D02*
G75*
G03*
X9950000Y-9275000I-125000J0D01*
G01*
X8475000Y-13325000D02*
X8475000Y-12300000D01*
X10375000Y-11475000D02*
X10375000Y-11375000D01*
X10075000Y-10175000D02*
X10075000Y-9975000D01*
X10475000Y-11275000D02*
G75*
G03*
X10375000Y-11375000I0J-100000D01*
G01*
X8600000Y-9275000D02*
G75*
G03*
X8475000Y-9400000I0J-125000D01*
G01*
X8725000Y-9275000D02*
X9950000Y-9275000D01*
X9925000Y-13425000D02*
X8575000Y-13425000D01*
X10375000Y-11475000D02*
G75*
G03*
X10475000Y-11575000I100000J0D01*
G01*
X10575000Y-11675000D02*
G75*
G03*
X10475000Y-11575000I-100000J0D01*
G01*
X10575000Y-10450000D02*
G75*
G03*
X10525000Y-10400000I-50000J0D01*
G01*
X9925000Y-13425000D02*
G75*
G03*
X10025000Y-13325000I0J100000D01*
G01*
X10075000Y-9475000D02*
X10075000Y-9400000D01*
X8725000Y-9275000D02*
X8600000Y-9275000D01*
X10125000Y-12425000D02*
G75*
G03*
X10025000Y-12525000I0J-100000D01*
G01*
X10075000Y-9975000D02*
G75*
G03*
X10075000Y-9475000I0J250000D01*
G01*
D11*
D12*
X8525000Y-12400000D02*
X8575000Y-12450000D01*
X8575000Y-12400000D02*
X8525000Y-12450000D01*
X8625000Y-12400000D02*
X8675000Y-12450000D01*
X8675000Y-12400000D02*
X8625000Y-12450000D01*
X8725000Y-12400000D02*
X8775000Y-12450000D01*
X8775000Y-12400000D02*
X8725000Y-12450000D01*
X8850000Y-12400000D02*
X8900000Y-12450000D01*
X8900000Y-12400000D02*
X8850000Y-12450000D01*
X8950000Y-12400000D02*
X9000000Y-12450000D01*
X9000000Y-12400000D02*
X8950000Y-12450000D01*
X9075000Y-12400000D02*
X9125000Y-12450000D01*
X9125000Y-12400000D02*
X9075000Y-12450000D01*
X9175000Y-12400000D02*
X9225000Y-12450000D01*
X9225000Y-12400000D02*
X9175000Y-12450000D01*
X9275000Y-12400000D02*
X9325000Y-12450000D01*
X9325000Y-12400000D02*
X9275000Y-12450000D01*
X9425000Y-12400000D02*
X9475000Y-12450000D01*
X9475000Y-12400000D02*
X9425000Y-12450000D01*
X10000000Y-12425000D02*
X10050000Y-12475000D01*
X10050000Y-12425000D02*
X10000000Y-12475000D01*
D13*
X8947500Y-10111000D02*
G75*
G03*
X8947500Y-10111000I-32500J0D01*
G01*
D11*
X8930000Y-10078500D02*
X8900000Y-10078500D01*
X8900000Y-10078500D02*
G75*
G03*
X8900000Y-10143500I0J-32500D01*
G01*
X8900000Y-10143500D02*
X8930000Y-10143500D01*
X8930000Y-10143500D02*
G75*
G03*
X8930000Y-10078500I0J32500D01*
G01*
D13*
X9667500Y-10111000D02*
G75*
G03*
X9667500Y-10111000I-32500J0D01*
G01*
D14*
X8596800Y-10125470D02*
X8596800Y-10224530D01*
X8547270Y-10175000D02*
X8646330Y-10175000D01*
X8698400Y-9617470D02*
X8698400Y-9716530D01*
X8648870Y-9667000D02*
X8747930Y-9667000D01*
X8800000Y-10125470D02*
X8800000Y-10224530D01*
X8750470Y-10175000D02*
X8849530Y-10175000D01*
D15*
X8640730Y-12315730D02*
X8640730Y-12234270D01*
X8559270Y-12234270D01*
X8559270Y-12315730D01*
X8640730Y-12315730D01*
X8640730Y-12315730D02*
X8640730Y-12234270D01*
X8559270Y-12234270D01*
X8559270Y-12315730D01*
X8640730Y-12315730D01*
X9990730Y-9440730D02*
X9990730Y-9359270D01*
X9909270Y-9359270D01*
X9909270Y-9440730D01*
X9990730Y-9440730D01*
D11*
X8730777Y-13741484D02*
X8730777Y-13541484D01*
X8730777Y-13541484D02*
X8778396Y-13541484D01*
X8778396Y-13541484D02*
X8806967Y-13551008D01*
X8806967Y-13551008D02*
X8826015Y-13570055D01*
X8826015Y-13570055D02*
X8835539Y-13589103D01*
X8835539Y-13589103D02*
X8845063Y-13627198D01*
X8845063Y-13627198D02*
X8845063Y-13655769D01*
X8845063Y-13655769D02*
X8835539Y-13693865D01*
X8835539Y-13693865D02*
X8826015Y-13712912D01*
X8826015Y-13712912D02*
X8806967Y-13731960D01*
X8806967Y-13731960D02*
X8778396Y-13741484D01*
X8778396Y-13741484D02*
X8730777Y-13741484D01*
X8930777Y-13741484D02*
X8930777Y-13608150D01*
X8930777Y-13646246D02*
X8940301Y-13627198D01*
X8940301Y-13627198D02*
X8949824Y-13617674D01*
X8949824Y-13617674D02*
X8968872Y-13608150D01*
X8968872Y-13608150D02*
X8987920Y-13608150D01*
X9054586Y-13741484D02*
X9054586Y-13608150D01*
X9054586Y-13541484D02*
X9045063Y-13551008D01*
X9045063Y-13551008D02*
X9054586Y-13560531D01*
X9054586Y-13560531D02*
X9064110Y-13551008D01*
X9064110Y-13551008D02*
X9054586Y-13541484D01*
X9054586Y-13541484D02*
X9054586Y-13560531D01*
X9178396Y-13741484D02*
X9159348Y-13731960D01*
X9159348Y-13731960D02*
X9149824Y-13712912D01*
X9149824Y-13712912D02*
X9149824Y-13541484D01*
X9283158Y-13741484D02*
X9264110Y-13731960D01*
X9264110Y-13731960D02*
X9254586Y-13712912D01*
X9254586Y-13712912D02*
X9254586Y-13541484D01*
X9511729Y-13741484D02*
X9511729Y-13541484D01*
X9511729Y-13541484D02*
X9578396Y-13684341D01*
X9578396Y-13684341D02*
X9645063Y-13541484D01*
X9645063Y-13541484D02*
X9645063Y-13741484D01*
X9826015Y-13741484D02*
X9826015Y-13636722D01*
X9826015Y-13636722D02*
X9816491Y-13617674D01*
X9816491Y-13617674D02*
X9797444Y-13608150D01*
X9797444Y-13608150D02*
X9759348Y-13608150D01*
X9759348Y-13608150D02*
X9740301Y-13617674D01*
X9826015Y-13731960D02*
X9806967Y-13741484D01*
X9806967Y-13741484D02*
X9759348Y-13741484D01*
X9759348Y-13741484D02*
X9740301Y-13731960D01*
X9740301Y-13731960D02*
X9730777Y-13712912D01*
X9730777Y-13712912D02*
X9730777Y-13693865D01*
X9730777Y-13693865D02*
X9740301Y-13674817D01*
X9740301Y-13674817D02*
X9759348Y-13665293D01*
X9759348Y-13665293D02*
X9806967Y-13665293D01*
X9806967Y-13665293D02*
X9826015Y-13655769D01*
X9921253Y-13608150D02*
X9921253Y-13808150D01*
X9921253Y-13617674D02*
X9940301Y-13608150D01*
X9940301Y-13608150D02*
X9978396Y-13608150D01*
X9978396Y-13608150D02*
X9997444Y-13617674D01*
X9997444Y-13617674D02*
X10006967Y-13627198D01*
X10006967Y-13627198D02*
X10016491Y-13646246D01*
X10016491Y-13646246D02*
X10016491Y-13703388D01*
X10016491Y-13703388D02*
X10006967Y-13722436D01*
X10006967Y-13722436D02*
X9997444Y-13731960D01*
X9997444Y-13731960D02*
X9978396Y-13741484D01*
X9978396Y-13741484D02*
X9940301Y-13741484D01*
X9940301Y-13741484D02*
X9921253Y-13731960D01*
X10102205Y-13722436D02*
X10111729Y-13731960D01*
X10111729Y-13731960D02*
X10102205Y-13741484D01*
X10102205Y-13741484D02*
X10092682Y-13731960D01*
X10092682Y-13731960D02*
X10102205Y-13722436D01*
X10102205Y-13722436D02*
X10102205Y-13741484D01*
X10102205Y-13617674D02*
X10111729Y-13627198D01*
X10111729Y-13627198D02*
X10102205Y-13636722D01*
X10102205Y-13636722D02*
X10092682Y-13627198D01*
X10092682Y-13627198D02*
X10102205Y-13617674D01*
X10102205Y-13617674D02*
X10102205Y-13636722D01*
D12*
X8420000Y-14045000D02*
X8470000Y-14095000D01*
X8470000Y-14045000D02*
X8420000Y-14095000D01*
D11*
X8768872Y-13961484D02*
X8787920Y-13961484D01*
X8787920Y-13961484D02*
X8806967Y-13971008D01*
X8806967Y-13971008D02*
X8816491Y-13980531D01*
X8816491Y-13980531D02*
X8826015Y-13999579D01*
X8826015Y-13999579D02*
X8835539Y-14037674D01*
X8835539Y-14037674D02*
X8835539Y-14085293D01*
X8835539Y-14085293D02*
X8826015Y-14123388D01*
X8826015Y-14123388D02*
X8816491Y-14142436D01*
X8816491Y-14142436D02*
X8806967Y-14151960D01*
X8806967Y-14151960D02*
X8787920Y-14161484D01*
X8787920Y-14161484D02*
X8768872Y-14161484D01*
X8768872Y-14161484D02*
X8749824Y-14151960D01*
X8749824Y-14151960D02*
X8740301Y-14142436D01*
X8740301Y-14142436D02*
X8730777Y-14123388D01*
X8730777Y-14123388D02*
X8721253Y-14085293D01*
X8721253Y-14085293D02*
X8721253Y-14037674D01*
X8721253Y-14037674D02*
X8730777Y-13999579D01*
X8730777Y-13999579D02*
X8740301Y-13980531D01*
X8740301Y-13980531D02*
X8749824Y-13971008D01*
X8749824Y-13971008D02*
X8768872Y-13961484D01*
X8921253Y-14142436D02*
X8930777Y-14151960D01*
X8930777Y-14151960D02*
X8921253Y-14161484D01*
X8921253Y-14161484D02*
X8911729Y-14151960D01*
X8911729Y-14151960D02*
X8921253Y-14142436D01*
X8921253Y-14142436D02*
X8921253Y-14161484D01*
X9111729Y-13961484D02*
X9016491Y-13961484D01*
X9016491Y-13961484D02*
X9006967Y-14056722D01*
X9006967Y-14056722D02*
X9016491Y-14047198D01*
X9016491Y-14047198D02*
X9035539Y-14037674D01*
X9035539Y-14037674D02*
X9083158Y-14037674D01*
X9083158Y-14037674D02*
X9102205Y-14047198D01*
X9102205Y-14047198D02*
X9111729Y-14056722D01*
X9111729Y-14056722D02*
X9121253Y-14075769D01*
X9121253Y-14075769D02*
X9121253Y-14123388D01*
X9121253Y-14123388D02*
X9111729Y-14142436D01*
X9111729Y-14142436D02*
X9102205Y-14151960D01*
X9102205Y-14151960D02*
X9083158Y-14161484D01*
X9083158Y-14161484D02*
X9035539Y-14161484D01*
X9035539Y-14161484D02*
X9016491Y-14151960D01*
X9016491Y-14151960D02*
X9006967Y-14142436D01*
X9245063Y-13961484D02*
X9264110Y-13961484D01*
X9264110Y-13961484D02*
X9283158Y-13971008D01*
X9283158Y-13971008D02*
X9292682Y-13980531D01*
X9292682Y-13980531D02*
X9302205Y-13999579D01*
X9302205Y-13999579D02*
X9311729Y-14037674D01*
X9311729Y-14037674D02*
X9311729Y-14085293D01*
X9311729Y-14085293D02*
X9302205Y-14123388D01*
X9302205Y-14123388D02*
X9292682Y-14142436D01*
X9292682Y-14142436D02*
X9283158Y-14151960D01*
X9283158Y-14151960D02*
X9264110Y-14161484D01*
X9264110Y-14161484D02*
X9245063Y-14161484D01*
X9245063Y-14161484D02*
X9226015Y-14151960D01*
X9226015Y-14151960D02*
X9216491Y-14142436D01*
X9216491Y-14142436D02*
X9206967Y-14123388D01*
X9206967Y-14123388D02*
X9197444Y-14085293D01*
X9197444Y-14085293D02*
X9197444Y-14037674D01*
X9197444Y-14037674D02*
X9206967Y-13999579D01*
X9206967Y-13999579D02*
X9216491Y-13980531D01*
X9216491Y-13980531D02*
X9226015Y-13971008D01*
X9226015Y-13971008D02*
X9245063Y-13961484D01*
X9435539Y-13961484D02*
X9454586Y-13961484D01*
X9454586Y-13961484D02*
X9473634Y-13971008D01*
X9473634Y-13971008D02*
X9483158Y-13980531D01*
X9483158Y-13980531D02*
X9492682Y-13999579D01*
X9492682Y-13999579D02*
X9502205Y-14037674D01*
X9502205Y-14037674D02*
X9502205Y-14085293D01*
X9502205Y-14085293D02*
X9492682Y-14123388D01*
X9492682Y-14123388D02*
X9483158Y-14142436D01*
X9483158Y-14142436D02*
X9473634Y-14151960D01*
X9473634Y-14151960D02*
X9454586Y-14161484D01*
X9454586Y-14161484D02*
X9435539Y-14161484D01*
X9435539Y-14161484D02*
X9416491Y-14151960D01*
X9416491Y-14151960D02*
X9406967Y-14142436D01*
X9406967Y-14142436D02*
X9397444Y-14123388D01*
X9397444Y-14123388D02*
X9387920Y-14085293D01*
X9387920Y-14085293D02*
X9387920Y-14037674D01*
X9387920Y-14037674D02*
X9397444Y-13999579D01*
X9397444Y-13999579D02*
X9406967Y-13980531D01*
X9406967Y-13980531D02*
X9416491Y-13971008D01*
X9416491Y-13971008D02*
X9435539Y-13961484D01*
X9587920Y-14161484D02*
X9587920Y-14028150D01*
X9587920Y-14047198D02*
X9597444Y-14037674D01*
X9597444Y-14037674D02*
X9616491Y-14028150D01*
X9616491Y-14028150D02*
X9645063Y-14028150D01*
X9645063Y-14028150D02*
X9664110Y-14037674D01*
X9664110Y-14037674D02*
X9673634Y-14056722D01*
X9673634Y-14056722D02*
X9673634Y-14161484D01*
X9673634Y-14056722D02*
X9683158Y-14037674D01*
X9683158Y-14037674D02*
X9702205Y-14028150D01*
X9702205Y-14028150D02*
X9730777Y-14028150D01*
X9730777Y-14028150D02*
X9749825Y-14037674D01*
X9749825Y-14037674D02*
X9759348Y-14056722D01*
X9759348Y-14056722D02*
X9759348Y-14161484D01*
X9854586Y-14161484D02*
X9854586Y-14028150D01*
X9854586Y-14047198D02*
X9864110Y-14037674D01*
X9864110Y-14037674D02*
X9883158Y-14028150D01*
X9883158Y-14028150D02*
X9911729Y-14028150D01*
X9911729Y-14028150D02*
X9930777Y-14037674D01*
X9930777Y-14037674D02*
X9940301Y-14056722D01*
X9940301Y-14056722D02*
X9940301Y-14161484D01*
X9940301Y-14056722D02*
X9949825Y-14037674D01*
X9949825Y-14037674D02*
X9968872Y-14028150D01*
X9968872Y-14028150D02*
X9997444Y-14028150D01*
X9997444Y-14028150D02*
X10016491Y-14037674D01*
X10016491Y-14037674D02*
X10026015Y-14056722D01*
X10026015Y-14056722D02*
X10026015Y-14161484D01*
X10416491Y-13951960D02*
X10245063Y-14209103D01*
X10673634Y-13961484D02*
X10692682Y-13961484D01*
X10692682Y-13961484D02*
X10711729Y-13971008D01*
X10711729Y-13971008D02*
X10721253Y-13980531D01*
X10721253Y-13980531D02*
X10730777Y-13999579D01*
X10730777Y-13999579D02*
X10740301Y-14037674D01*
X10740301Y-14037674D02*
X10740301Y-14085293D01*
X10740301Y-14085293D02*
X10730777Y-14123388D01*
X10730777Y-14123388D02*
X10721253Y-14142436D01*
X10721253Y-14142436D02*
X10711729Y-14151960D01*
X10711729Y-14151960D02*
X10692682Y-14161484D01*
X10692682Y-14161484D02*
X10673634Y-14161484D01*
X10673634Y-14161484D02*
X10654587Y-14151960D01*
X10654587Y-14151960D02*
X10645063Y-14142436D01*
X10645063Y-14142436D02*
X10635539Y-14123388D01*
X10635539Y-14123388D02*
X10626015Y-14085293D01*
X10626015Y-14085293D02*
X10626015Y-14037674D01*
X10626015Y-14037674D02*
X10635539Y-13999579D01*
X10635539Y-13999579D02*
X10645063Y-13980531D01*
X10645063Y-13980531D02*
X10654587Y-13971008D01*
X10654587Y-13971008D02*
X10673634Y-13961484D01*
X10826015Y-14142436D02*
X10835539Y-14151960D01*
X10835539Y-14151960D02*
X10826015Y-14161484D01*
X10826015Y-14161484D02*
X10816491Y-14151960D01*
X10816491Y-14151960D02*
X10826015Y-14142436D01*
X10826015Y-14142436D02*
X10826015Y-14161484D01*
X10959348Y-13961484D02*
X10978396Y-13961484D01*
X10978396Y-13961484D02*
X10997444Y-13971008D01*
X10997444Y-13971008D02*
X11006968Y-13980531D01*
X11006968Y-13980531D02*
X11016491Y-13999579D01*
X11016491Y-13999579D02*
X11026015Y-14037674D01*
X11026015Y-14037674D02*
X11026015Y-14085293D01*
X11026015Y-14085293D02*
X11016491Y-14123388D01*
X11016491Y-14123388D02*
X11006968Y-14142436D01*
X11006968Y-14142436D02*
X10997444Y-14151960D01*
X10997444Y-14151960D02*
X10978396Y-14161484D01*
X10978396Y-14161484D02*
X10959348Y-14161484D01*
X10959348Y-14161484D02*
X10940301Y-14151960D01*
X10940301Y-14151960D02*
X10930777Y-14142436D01*
X10930777Y-14142436D02*
X10921253Y-14123388D01*
X10921253Y-14123388D02*
X10911729Y-14085293D01*
X10911729Y-14085293D02*
X10911729Y-14037674D01*
X10911729Y-14037674D02*
X10921253Y-13999579D01*
X10921253Y-13999579D02*
X10930777Y-13980531D01*
X10930777Y-13980531D02*
X10940301Y-13971008D01*
X10940301Y-13971008D02*
X10959348Y-13961484D01*
X11216491Y-14161484D02*
X11102206Y-14161484D01*
X11159348Y-14161484D02*
X11159348Y-13961484D01*
X11159348Y-13961484D02*
X11140301Y-13990055D01*
X11140301Y-13990055D02*
X11121253Y-14009103D01*
X11121253Y-14009103D02*
X11102206Y-14018627D01*
X11311729Y-14161484D02*
X11349825Y-14161484D01*
X11349825Y-14161484D02*
X11368872Y-14151960D01*
X11368872Y-14151960D02*
X11378396Y-14142436D01*
X11378396Y-14142436D02*
X11397444Y-14113865D01*
X11397444Y-14113865D02*
X11406967Y-14075769D01*
X11406967Y-14075769D02*
X11406967Y-13999579D01*
X11406967Y-13999579D02*
X11397444Y-13980531D01*
X11397444Y-13980531D02*
X11387920Y-13971008D01*
X11387920Y-13971008D02*
X11368872Y-13961484D01*
X11368872Y-13961484D02*
X11330777Y-13961484D01*
X11330777Y-13961484D02*
X11311729Y-13971008D01*
X11311729Y-13971008D02*
X11302206Y-13980531D01*
X11302206Y-13980531D02*
X11292682Y-13999579D01*
X11292682Y-13999579D02*
X11292682Y-14047198D01*
X11292682Y-14047198D02*
X11302206Y-14066246D01*
X11302206Y-14066246D02*
X11311729Y-14075769D01*
X11311729Y-14075769D02*
X11330777Y-14085293D01*
X11330777Y-14085293D02*
X11368872Y-14085293D01*
X11368872Y-14085293D02*
X11387920Y-14075769D01*
X11387920Y-14075769D02*
X11397444Y-14066246D01*
X11397444Y-14066246D02*
X11406967Y-14047198D01*
X11473634Y-13961484D02*
X11606967Y-13961484D01*
X11606967Y-13961484D02*
X11521253Y-14161484D01*
X11673634Y-13961484D02*
X11673634Y-13999579D01*
X11749825Y-13961484D02*
X11749825Y-13999579D01*
X12045063Y-14237674D02*
X12035539Y-14228150D01*
X12035539Y-14228150D02*
X12016491Y-14199579D01*
X12016491Y-14199579D02*
X12006968Y-14180531D01*
X12006968Y-14180531D02*
X11997444Y-14151960D01*
X11997444Y-14151960D02*
X11987920Y-14104341D01*
X11987920Y-14104341D02*
X11987920Y-14066246D01*
X11987920Y-14066246D02*
X11997444Y-14018627D01*
X11997444Y-14018627D02*
X12006968Y-13990055D01*
X12006968Y-13990055D02*
X12016491Y-13971008D01*
X12016491Y-13971008D02*
X12035539Y-13942436D01*
X12035539Y-13942436D02*
X12045063Y-13932912D01*
X12226015Y-14161484D02*
X12111729Y-14161484D01*
X12168872Y-14161484D02*
X12168872Y-13961484D01*
X12168872Y-13961484D02*
X12149825Y-13990055D01*
X12149825Y-13990055D02*
X12130777Y-14009103D01*
X12130777Y-14009103D02*
X12111729Y-14018627D01*
X12349825Y-13961484D02*
X12368872Y-13961484D01*
X12368872Y-13961484D02*
X12387920Y-13971008D01*
X12387920Y-13971008D02*
X12397444Y-13980531D01*
X12397444Y-13980531D02*
X12406968Y-13999579D01*
X12406968Y-13999579D02*
X12416491Y-14037674D01*
X12416491Y-14037674D02*
X12416491Y-14085293D01*
X12416491Y-14085293D02*
X12406968Y-14123388D01*
X12406968Y-14123388D02*
X12397444Y-14142436D01*
X12397444Y-14142436D02*
X12387920Y-14151960D01*
X12387920Y-14151960D02*
X12368872Y-14161484D01*
X12368872Y-14161484D02*
X12349825Y-14161484D01*
X12349825Y-14161484D02*
X12330777Y-14151960D01*
X12330777Y-14151960D02*
X12321253Y-14142436D01*
X12321253Y-14142436D02*
X12311729Y-14123388D01*
X12311729Y-14123388D02*
X12302206Y-14085293D01*
X12302206Y-14085293D02*
X12302206Y-14037674D01*
X12302206Y-14037674D02*
X12311729Y-13999579D01*
X12311729Y-13999579D02*
X12321253Y-13980531D01*
X12321253Y-13980531D02*
X12330777Y-13971008D01*
X12330777Y-13971008D02*
X12349825Y-13961484D01*
X12654587Y-14161484D02*
X12654587Y-13961484D01*
X12740301Y-14161484D02*
X12740301Y-14056722D01*
X12740301Y-14056722D02*
X12730777Y-14037674D01*
X12730777Y-14037674D02*
X12711730Y-14028150D01*
X12711730Y-14028150D02*
X12683158Y-14028150D01*
X12683158Y-14028150D02*
X12664110Y-14037674D01*
X12664110Y-14037674D02*
X12654587Y-14047198D01*
X12864110Y-14161484D02*
X12845063Y-14151960D01*
X12845063Y-14151960D02*
X12835539Y-14142436D01*
X12835539Y-14142436D02*
X12826015Y-14123388D01*
X12826015Y-14123388D02*
X12826015Y-14066246D01*
X12826015Y-14066246D02*
X12835539Y-14047198D01*
X12835539Y-14047198D02*
X12845063Y-14037674D01*
X12845063Y-14037674D02*
X12864110Y-14028150D01*
X12864110Y-14028150D02*
X12892682Y-14028150D01*
X12892682Y-14028150D02*
X12911730Y-14037674D01*
X12911730Y-14037674D02*
X12921253Y-14047198D01*
X12921253Y-14047198D02*
X12930777Y-14066246D01*
X12930777Y-14066246D02*
X12930777Y-14123388D01*
X12930777Y-14123388D02*
X12921253Y-14142436D01*
X12921253Y-14142436D02*
X12911730Y-14151960D01*
X12911730Y-14151960D02*
X12892682Y-14161484D01*
X12892682Y-14161484D02*
X12864110Y-14161484D01*
X13045063Y-14161484D02*
X13026015Y-14151960D01*
X13026015Y-14151960D02*
X13016491Y-14132912D01*
X13016491Y-14132912D02*
X13016491Y-13961484D01*
X13197444Y-14151960D02*
X13178396Y-14161484D01*
X13178396Y-14161484D02*
X13140301Y-14161484D01*
X13140301Y-14161484D02*
X13121253Y-14151960D01*
X13121253Y-14151960D02*
X13111730Y-14132912D01*
X13111730Y-14132912D02*
X13111730Y-14056722D01*
X13111730Y-14056722D02*
X13121253Y-14037674D01*
X13121253Y-14037674D02*
X13140301Y-14028150D01*
X13140301Y-14028150D02*
X13178396Y-14028150D01*
X13178396Y-14028150D02*
X13197444Y-14037674D01*
X13197444Y-14037674D02*
X13206968Y-14056722D01*
X13206968Y-14056722D02*
X13206968Y-14075769D01*
X13206968Y-14075769D02*
X13111730Y-14094817D01*
X13283158Y-14151960D02*
X13302206Y-14161484D01*
X13302206Y-14161484D02*
X13340301Y-14161484D01*
X13340301Y-14161484D02*
X13359349Y-14151960D01*
X13359349Y-14151960D02*
X13368872Y-14132912D01*
X13368872Y-14132912D02*
X13368872Y-14123388D01*
X13368872Y-14123388D02*
X13359349Y-14104341D01*
X13359349Y-14104341D02*
X13340301Y-14094817D01*
X13340301Y-14094817D02*
X13311730Y-14094817D01*
X13311730Y-14094817D02*
X13292682Y-14085293D01*
X13292682Y-14085293D02*
X13283158Y-14066246D01*
X13283158Y-14066246D02*
X13283158Y-14056722D01*
X13283158Y-14056722D02*
X13292682Y-14037674D01*
X13292682Y-14037674D02*
X13311730Y-14028150D01*
X13311730Y-14028150D02*
X13340301Y-14028150D01*
X13340301Y-14028150D02*
X13359349Y-14037674D01*
X13435539Y-14237674D02*
X13445063Y-14228150D01*
X13445063Y-14228150D02*
X13464111Y-14199579D01*
X13464111Y-14199579D02*
X13473634Y-14180531D01*
X13473634Y-14180531D02*
X13483158Y-14151960D01*
X13483158Y-14151960D02*
X13492682Y-14104341D01*
X13492682Y-14104341D02*
X13492682Y-14066246D01*
X13492682Y-14066246D02*
X13483158Y-14018627D01*
X13483158Y-14018627D02*
X13473634Y-13990055D01*
X13473634Y-13990055D02*
X13464111Y-13971008D01*
X13464111Y-13971008D02*
X13445063Y-13942436D01*
X13445063Y-13942436D02*
X13435539Y-13932912D01*
X13797444Y-14237674D02*
X13787920Y-14228150D01*
X13787920Y-14228150D02*
X13768872Y-14199579D01*
X13768872Y-14199579D02*
X13759349Y-14180531D01*
X13759349Y-14180531D02*
X13749825Y-14151960D01*
X13749825Y-14151960D02*
X13740301Y-14104341D01*
X13740301Y-14104341D02*
X13740301Y-14066246D01*
X13740301Y-14066246D02*
X13749825Y-14018627D01*
X13749825Y-14018627D02*
X13759349Y-13990055D01*
X13759349Y-13990055D02*
X13768872Y-13971008D01*
X13768872Y-13971008D02*
X13787920Y-13942436D01*
X13787920Y-13942436D02*
X13797444Y-13932912D01*
X13873634Y-14028150D02*
X13873634Y-14161484D01*
X13873634Y-14047198D02*
X13883158Y-14037674D01*
X13883158Y-14037674D02*
X13902206Y-14028150D01*
X13902206Y-14028150D02*
X13930777Y-14028150D01*
X13930777Y-14028150D02*
X13949825Y-14037674D01*
X13949825Y-14037674D02*
X13959349Y-14056722D01*
X13959349Y-14056722D02*
X13959349Y-14161484D01*
X14083158Y-14161484D02*
X14064111Y-14151960D01*
X14064111Y-14151960D02*
X14054587Y-14142436D01*
X14054587Y-14142436D02*
X14045063Y-14123388D01*
X14045063Y-14123388D02*
X14045063Y-14066246D01*
X14045063Y-14066246D02*
X14054587Y-14047198D01*
X14054587Y-14047198D02*
X14064111Y-14037674D01*
X14064111Y-14037674D02*
X14083158Y-14028150D01*
X14083158Y-14028150D02*
X14111730Y-14028150D01*
X14111730Y-14028150D02*
X14130777Y-14037674D01*
X14130777Y-14037674D02*
X14140301Y-14047198D01*
X14140301Y-14047198D02*
X14149825Y-14066246D01*
X14149825Y-14066246D02*
X14149825Y-14123388D01*
X14149825Y-14123388D02*
X14140301Y-14142436D01*
X14140301Y-14142436D02*
X14130777Y-14151960D01*
X14130777Y-14151960D02*
X14111730Y-14161484D01*
X14111730Y-14161484D02*
X14083158Y-14161484D01*
X14206968Y-14028150D02*
X14283158Y-14028150D01*
X14235539Y-13961484D02*
X14235539Y-14132912D01*
X14235539Y-14132912D02*
X14245063Y-14151960D01*
X14245063Y-14151960D02*
X14264111Y-14161484D01*
X14264111Y-14161484D02*
X14283158Y-14161484D01*
X14502206Y-14028150D02*
X14502206Y-14228150D01*
X14502206Y-14037674D02*
X14521253Y-14028150D01*
X14521253Y-14028150D02*
X14559349Y-14028150D01*
X14559349Y-14028150D02*
X14578396Y-14037674D01*
X14578396Y-14037674D02*
X14587920Y-14047198D01*
X14587920Y-14047198D02*
X14597444Y-14066246D01*
X14597444Y-14066246D02*
X14597444Y-14123388D01*
X14597444Y-14123388D02*
X14587920Y-14142436D01*
X14587920Y-14142436D02*
X14578396Y-14151960D01*
X14578396Y-14151960D02*
X14559349Y-14161484D01*
X14559349Y-14161484D02*
X14521253Y-14161484D01*
X14521253Y-14161484D02*
X14502206Y-14151960D01*
X14711730Y-14161484D02*
X14692682Y-14151960D01*
X14692682Y-14151960D02*
X14683158Y-14132912D01*
X14683158Y-14132912D02*
X14683158Y-13961484D01*
X14873634Y-14161484D02*
X14873634Y-14056722D01*
X14873634Y-14056722D02*
X14864111Y-14037674D01*
X14864111Y-14037674D02*
X14845063Y-14028150D01*
X14845063Y-14028150D02*
X14806968Y-14028150D01*
X14806968Y-14028150D02*
X14787920Y-14037674D01*
X14873634Y-14151960D02*
X14854587Y-14161484D01*
X14854587Y-14161484D02*
X14806968Y-14161484D01*
X14806968Y-14161484D02*
X14787920Y-14151960D01*
X14787920Y-14151960D02*
X14778396Y-14132912D01*
X14778396Y-14132912D02*
X14778396Y-14113865D01*
X14778396Y-14113865D02*
X14787920Y-14094817D01*
X14787920Y-14094817D02*
X14806968Y-14085293D01*
X14806968Y-14085293D02*
X14854587Y-14085293D01*
X14854587Y-14085293D02*
X14873634Y-14075769D01*
X14940301Y-14028150D02*
X15016492Y-14028150D01*
X14968873Y-13961484D02*
X14968873Y-14132912D01*
X14968873Y-14132912D02*
X14978396Y-14151960D01*
X14978396Y-14151960D02*
X14997444Y-14161484D01*
X14997444Y-14161484D02*
X15016492Y-14161484D01*
X15159349Y-14151960D02*
X15140301Y-14161484D01*
X15140301Y-14161484D02*
X15102206Y-14161484D01*
X15102206Y-14161484D02*
X15083158Y-14151960D01*
X15083158Y-14151960D02*
X15073634Y-14132912D01*
X15073634Y-14132912D02*
X15073634Y-14056722D01*
X15073634Y-14056722D02*
X15083158Y-14037674D01*
X15083158Y-14037674D02*
X15102206Y-14028150D01*
X15102206Y-14028150D02*
X15140301Y-14028150D01*
X15140301Y-14028150D02*
X15159349Y-14037674D01*
X15159349Y-14037674D02*
X15168873Y-14056722D01*
X15168873Y-14056722D02*
X15168873Y-14075769D01*
X15168873Y-14075769D02*
X15073634Y-14094817D01*
X15340301Y-14161484D02*
X15340301Y-13961484D01*
X15340301Y-14151960D02*
X15321254Y-14161484D01*
X15321254Y-14161484D02*
X15283158Y-14161484D01*
X15283158Y-14161484D02*
X15264111Y-14151960D01*
X15264111Y-14151960D02*
X15254587Y-14142436D01*
X15254587Y-14142436D02*
X15245063Y-14123388D01*
X15245063Y-14123388D02*
X15245063Y-14066246D01*
X15245063Y-14066246D02*
X15254587Y-14047198D01*
X15254587Y-14047198D02*
X15264111Y-14037674D01*
X15264111Y-14037674D02*
X15283158Y-14028150D01*
X15283158Y-14028150D02*
X15321254Y-14028150D01*
X15321254Y-14028150D02*
X15340301Y-14037674D01*
X15416492Y-14237674D02*
X15426015Y-14228150D01*
X15426015Y-14228150D02*
X15445063Y-14199579D01*
X15445063Y-14199579D02*
X15454587Y-14180531D01*
X15454587Y-14180531D02*
X15464111Y-14151960D01*
X15464111Y-14151960D02*
X15473634Y-14104341D01*
X15473634Y-14104341D02*
X15473634Y-14066246D01*
X15473634Y-14066246D02*
X15464111Y-14018627D01*
X15464111Y-14018627D02*
X15454587Y-13990055D01*
X15454587Y-13990055D02*
X15445063Y-13971008D01*
X15445063Y-13971008D02*
X15426015Y-13942436D01*
X15426015Y-13942436D02*
X15416492Y-13932912D01*
D13*
X8470000Y-14334000D02*
G75*
G03*
X8470000Y-14334000I-32500J0D01*
G01*
D11*
X8768872Y-14225484D02*
X8787920Y-14225484D01*
X8787920Y-14225484D02*
X8806967Y-14235008D01*
X8806967Y-14235008D02*
X8816491Y-14244531D01*
X8816491Y-14244531D02*
X8826015Y-14263579D01*
X8826015Y-14263579D02*
X8835539Y-14301674D01*
X8835539Y-14301674D02*
X8835539Y-14349293D01*
X8835539Y-14349293D02*
X8826015Y-14387388D01*
X8826015Y-14387388D02*
X8816491Y-14406436D01*
X8816491Y-14406436D02*
X8806967Y-14415960D01*
X8806967Y-14415960D02*
X8787920Y-14425484D01*
X8787920Y-14425484D02*
X8768872Y-14425484D01*
X8768872Y-14425484D02*
X8749824Y-14415960D01*
X8749824Y-14415960D02*
X8740301Y-14406436D01*
X8740301Y-14406436D02*
X8730777Y-14387388D01*
X8730777Y-14387388D02*
X8721253Y-14349293D01*
X8721253Y-14349293D02*
X8721253Y-14301674D01*
X8721253Y-14301674D02*
X8730777Y-14263579D01*
X8730777Y-14263579D02*
X8740301Y-14244531D01*
X8740301Y-14244531D02*
X8749824Y-14235008D01*
X8749824Y-14235008D02*
X8768872Y-14225484D01*
X8921253Y-14406436D02*
X8930777Y-14415960D01*
X8930777Y-14415960D02*
X8921253Y-14425484D01*
X8921253Y-14425484D02*
X8911729Y-14415960D01*
X8911729Y-14415960D02*
X8921253Y-14406436D01*
X8921253Y-14406436D02*
X8921253Y-14425484D01*
X9102205Y-14225484D02*
X9064110Y-14225484D01*
X9064110Y-14225484D02*
X9045063Y-14235008D01*
X9045063Y-14235008D02*
X9035539Y-14244531D01*
X9035539Y-14244531D02*
X9016491Y-14273103D01*
X9016491Y-14273103D02*
X9006967Y-14311198D01*
X9006967Y-14311198D02*
X9006967Y-14387388D01*
X9006967Y-14387388D02*
X9016491Y-14406436D01*
X9016491Y-14406436D02*
X9026015Y-14415960D01*
X9026015Y-14415960D02*
X9045063Y-14425484D01*
X9045063Y-14425484D02*
X9083158Y-14425484D01*
X9083158Y-14425484D02*
X9102205Y-14415960D01*
X9102205Y-14415960D02*
X9111729Y-14406436D01*
X9111729Y-14406436D02*
X9121253Y-14387388D01*
X9121253Y-14387388D02*
X9121253Y-14339769D01*
X9121253Y-14339769D02*
X9111729Y-14320722D01*
X9111729Y-14320722D02*
X9102205Y-14311198D01*
X9102205Y-14311198D02*
X9083158Y-14301674D01*
X9083158Y-14301674D02*
X9045063Y-14301674D01*
X9045063Y-14301674D02*
X9026015Y-14311198D01*
X9026015Y-14311198D02*
X9016491Y-14320722D01*
X9016491Y-14320722D02*
X9006967Y-14339769D01*
X9302205Y-14225484D02*
X9206967Y-14225484D01*
X9206967Y-14225484D02*
X9197444Y-14320722D01*
X9197444Y-14320722D02*
X9206967Y-14311198D01*
X9206967Y-14311198D02*
X9226015Y-14301674D01*
X9226015Y-14301674D02*
X9273634Y-14301674D01*
X9273634Y-14301674D02*
X9292682Y-14311198D01*
X9292682Y-14311198D02*
X9302205Y-14320722D01*
X9302205Y-14320722D02*
X9311729Y-14339769D01*
X9311729Y-14339769D02*
X9311729Y-14387388D01*
X9311729Y-14387388D02*
X9302205Y-14406436D01*
X9302205Y-14406436D02*
X9292682Y-14415960D01*
X9292682Y-14415960D02*
X9273634Y-14425484D01*
X9273634Y-14425484D02*
X9226015Y-14425484D01*
X9226015Y-14425484D02*
X9206967Y-14415960D01*
X9206967Y-14415960D02*
X9197444Y-14406436D01*
X9435539Y-14225484D02*
X9454586Y-14225484D01*
X9454586Y-14225484D02*
X9473634Y-14235008D01*
X9473634Y-14235008D02*
X9483158Y-14244531D01*
X9483158Y-14244531D02*
X9492682Y-14263579D01*
X9492682Y-14263579D02*
X9502205Y-14301674D01*
X9502205Y-14301674D02*
X9502205Y-14349293D01*
X9502205Y-14349293D02*
X9492682Y-14387388D01*
X9492682Y-14387388D02*
X9483158Y-14406436D01*
X9483158Y-14406436D02*
X9473634Y-14415960D01*
X9473634Y-14415960D02*
X9454586Y-14425484D01*
X9454586Y-14425484D02*
X9435539Y-14425484D01*
X9435539Y-14425484D02*
X9416491Y-14415960D01*
X9416491Y-14415960D02*
X9406967Y-14406436D01*
X9406967Y-14406436D02*
X9397444Y-14387388D01*
X9397444Y-14387388D02*
X9387920Y-14349293D01*
X9387920Y-14349293D02*
X9387920Y-14301674D01*
X9387920Y-14301674D02*
X9397444Y-14263579D01*
X9397444Y-14263579D02*
X9406967Y-14244531D01*
X9406967Y-14244531D02*
X9416491Y-14235008D01*
X9416491Y-14235008D02*
X9435539Y-14225484D01*
X9587920Y-14425484D02*
X9587920Y-14292150D01*
X9587920Y-14311198D02*
X9597444Y-14301674D01*
X9597444Y-14301674D02*
X9616491Y-14292150D01*
X9616491Y-14292150D02*
X9645063Y-14292150D01*
X9645063Y-14292150D02*
X9664110Y-14301674D01*
X9664110Y-14301674D02*
X9673634Y-14320722D01*
X9673634Y-14320722D02*
X9673634Y-14425484D01*
X9673634Y-14320722D02*
X9683158Y-14301674D01*
X9683158Y-14301674D02*
X9702205Y-14292150D01*
X9702205Y-14292150D02*
X9730777Y-14292150D01*
X9730777Y-14292150D02*
X9749825Y-14301674D01*
X9749825Y-14301674D02*
X9759348Y-14320722D01*
X9759348Y-14320722D02*
X9759348Y-14425484D01*
X9854586Y-14425484D02*
X9854586Y-14292150D01*
X9854586Y-14311198D02*
X9864110Y-14301674D01*
X9864110Y-14301674D02*
X9883158Y-14292150D01*
X9883158Y-14292150D02*
X9911729Y-14292150D01*
X9911729Y-14292150D02*
X9930777Y-14301674D01*
X9930777Y-14301674D02*
X9940301Y-14320722D01*
X9940301Y-14320722D02*
X9940301Y-14425484D01*
X9940301Y-14320722D02*
X9949825Y-14301674D01*
X9949825Y-14301674D02*
X9968872Y-14292150D01*
X9968872Y-14292150D02*
X9997444Y-14292150D01*
X9997444Y-14292150D02*
X10016491Y-14301674D01*
X10016491Y-14301674D02*
X10026015Y-14320722D01*
X10026015Y-14320722D02*
X10026015Y-14425484D01*
X10416491Y-14215960D02*
X10245063Y-14473103D01*
X10673634Y-14225484D02*
X10692682Y-14225484D01*
X10692682Y-14225484D02*
X10711729Y-14235008D01*
X10711729Y-14235008D02*
X10721253Y-14244531D01*
X10721253Y-14244531D02*
X10730777Y-14263579D01*
X10730777Y-14263579D02*
X10740301Y-14301674D01*
X10740301Y-14301674D02*
X10740301Y-14349293D01*
X10740301Y-14349293D02*
X10730777Y-14387388D01*
X10730777Y-14387388D02*
X10721253Y-14406436D01*
X10721253Y-14406436D02*
X10711729Y-14415960D01*
X10711729Y-14415960D02*
X10692682Y-14425484D01*
X10692682Y-14425484D02*
X10673634Y-14425484D01*
X10673634Y-14425484D02*
X10654587Y-14415960D01*
X10654587Y-14415960D02*
X10645063Y-14406436D01*
X10645063Y-14406436D02*
X10635539Y-14387388D01*
X10635539Y-14387388D02*
X10626015Y-14349293D01*
X10626015Y-14349293D02*
X10626015Y-14301674D01*
X10626015Y-14301674D02*
X10635539Y-14263579D01*
X10635539Y-14263579D02*
X10645063Y-14244531D01*
X10645063Y-14244531D02*
X10654587Y-14235008D01*
X10654587Y-14235008D02*
X10673634Y-14225484D01*
X10826015Y-14406436D02*
X10835539Y-14415960D01*
X10835539Y-14415960D02*
X10826015Y-14425484D01*
X10826015Y-14425484D02*
X10816491Y-14415960D01*
X10816491Y-14415960D02*
X10826015Y-14406436D01*
X10826015Y-14406436D02*
X10826015Y-14425484D01*
X10959348Y-14225484D02*
X10978396Y-14225484D01*
X10978396Y-14225484D02*
X10997444Y-14235008D01*
X10997444Y-14235008D02*
X11006968Y-14244531D01*
X11006968Y-14244531D02*
X11016491Y-14263579D01*
X11016491Y-14263579D02*
X11026015Y-14301674D01*
X11026015Y-14301674D02*
X11026015Y-14349293D01*
X11026015Y-14349293D02*
X11016491Y-14387388D01*
X11016491Y-14387388D02*
X11006968Y-14406436D01*
X11006968Y-14406436D02*
X10997444Y-14415960D01*
X10997444Y-14415960D02*
X10978396Y-14425484D01*
X10978396Y-14425484D02*
X10959348Y-14425484D01*
X10959348Y-14425484D02*
X10940301Y-14415960D01*
X10940301Y-14415960D02*
X10930777Y-14406436D01*
X10930777Y-14406436D02*
X10921253Y-14387388D01*
X10921253Y-14387388D02*
X10911729Y-14349293D01*
X10911729Y-14349293D02*
X10911729Y-14301674D01*
X10911729Y-14301674D02*
X10921253Y-14263579D01*
X10921253Y-14263579D02*
X10930777Y-14244531D01*
X10930777Y-14244531D02*
X10940301Y-14235008D01*
X10940301Y-14235008D02*
X10959348Y-14225484D01*
X11102206Y-14244531D02*
X11111729Y-14235008D01*
X11111729Y-14235008D02*
X11130777Y-14225484D01*
X11130777Y-14225484D02*
X11178396Y-14225484D01*
X11178396Y-14225484D02*
X11197444Y-14235008D01*
X11197444Y-14235008D02*
X11206967Y-14244531D01*
X11206967Y-14244531D02*
X11216491Y-14263579D01*
X11216491Y-14263579D02*
X11216491Y-14282627D01*
X11216491Y-14282627D02*
X11206967Y-14311198D01*
X11206967Y-14311198D02*
X11092682Y-14425484D01*
X11092682Y-14425484D02*
X11216491Y-14425484D01*
X11397444Y-14225484D02*
X11302206Y-14225484D01*
X11302206Y-14225484D02*
X11292682Y-14320722D01*
X11292682Y-14320722D02*
X11302206Y-14311198D01*
X11302206Y-14311198D02*
X11321253Y-14301674D01*
X11321253Y-14301674D02*
X11368872Y-14301674D01*
X11368872Y-14301674D02*
X11387920Y-14311198D01*
X11387920Y-14311198D02*
X11397444Y-14320722D01*
X11397444Y-14320722D02*
X11406967Y-14339769D01*
X11406967Y-14339769D02*
X11406967Y-14387388D01*
X11406967Y-14387388D02*
X11397444Y-14406436D01*
X11397444Y-14406436D02*
X11387920Y-14415960D01*
X11387920Y-14415960D02*
X11368872Y-14425484D01*
X11368872Y-14425484D02*
X11321253Y-14425484D01*
X11321253Y-14425484D02*
X11302206Y-14415960D01*
X11302206Y-14415960D02*
X11292682Y-14406436D01*
X11578396Y-14225484D02*
X11540301Y-14225484D01*
X11540301Y-14225484D02*
X11521253Y-14235008D01*
X11521253Y-14235008D02*
X11511729Y-14244531D01*
X11511729Y-14244531D02*
X11492682Y-14273103D01*
X11492682Y-14273103D02*
X11483158Y-14311198D01*
X11483158Y-14311198D02*
X11483158Y-14387388D01*
X11483158Y-14387388D02*
X11492682Y-14406436D01*
X11492682Y-14406436D02*
X11502206Y-14415960D01*
X11502206Y-14415960D02*
X11521253Y-14425484D01*
X11521253Y-14425484D02*
X11559348Y-14425484D01*
X11559348Y-14425484D02*
X11578396Y-14415960D01*
X11578396Y-14415960D02*
X11587920Y-14406436D01*
X11587920Y-14406436D02*
X11597444Y-14387388D01*
X11597444Y-14387388D02*
X11597444Y-14339769D01*
X11597444Y-14339769D02*
X11587920Y-14320722D01*
X11587920Y-14320722D02*
X11578396Y-14311198D01*
X11578396Y-14311198D02*
X11559348Y-14301674D01*
X11559348Y-14301674D02*
X11521253Y-14301674D01*
X11521253Y-14301674D02*
X11502206Y-14311198D01*
X11502206Y-14311198D02*
X11492682Y-14320722D01*
X11492682Y-14320722D02*
X11483158Y-14339769D01*
X11673634Y-14225484D02*
X11673634Y-14263579D01*
X11749825Y-14225484D02*
X11749825Y-14263579D01*
X12045063Y-14501674D02*
X12035539Y-14492150D01*
X12035539Y-14492150D02*
X12016491Y-14463579D01*
X12016491Y-14463579D02*
X12006968Y-14444531D01*
X12006968Y-14444531D02*
X11997444Y-14415960D01*
X11997444Y-14415960D02*
X11987920Y-14368341D01*
X11987920Y-14368341D02*
X11987920Y-14330246D01*
X11987920Y-14330246D02*
X11997444Y-14282627D01*
X11997444Y-14282627D02*
X12006968Y-14254055D01*
X12006968Y-14254055D02*
X12016491Y-14235008D01*
X12016491Y-14235008D02*
X12035539Y-14206436D01*
X12035539Y-14206436D02*
X12045063Y-14196912D01*
X12226015Y-14425484D02*
X12111729Y-14425484D01*
X12168872Y-14425484D02*
X12168872Y-14225484D01*
X12168872Y-14225484D02*
X12149825Y-14254055D01*
X12149825Y-14254055D02*
X12130777Y-14273103D01*
X12130777Y-14273103D02*
X12111729Y-14282627D01*
X12464110Y-14425484D02*
X12464110Y-14225484D01*
X12549825Y-14425484D02*
X12549825Y-14320722D01*
X12549825Y-14320722D02*
X12540301Y-14301674D01*
X12540301Y-14301674D02*
X12521253Y-14292150D01*
X12521253Y-14292150D02*
X12492682Y-14292150D01*
X12492682Y-14292150D02*
X12473634Y-14301674D01*
X12473634Y-14301674D02*
X12464110Y-14311198D01*
X12673634Y-14425484D02*
X12654587Y-14415960D01*
X12654587Y-14415960D02*
X12645063Y-14406436D01*
X12645063Y-14406436D02*
X12635539Y-14387388D01*
X12635539Y-14387388D02*
X12635539Y-14330246D01*
X12635539Y-14330246D02*
X12645063Y-14311198D01*
X12645063Y-14311198D02*
X12654587Y-14301674D01*
X12654587Y-14301674D02*
X12673634Y-14292150D01*
X12673634Y-14292150D02*
X12702206Y-14292150D01*
X12702206Y-14292150D02*
X12721253Y-14301674D01*
X12721253Y-14301674D02*
X12730777Y-14311198D01*
X12730777Y-14311198D02*
X12740301Y-14330246D01*
X12740301Y-14330246D02*
X12740301Y-14387388D01*
X12740301Y-14387388D02*
X12730777Y-14406436D01*
X12730777Y-14406436D02*
X12721253Y-14415960D01*
X12721253Y-14415960D02*
X12702206Y-14425484D01*
X12702206Y-14425484D02*
X12673634Y-14425484D01*
X12854587Y-14425484D02*
X12835539Y-14415960D01*
X12835539Y-14415960D02*
X12826015Y-14396912D01*
X12826015Y-14396912D02*
X12826015Y-14225484D01*
X13006968Y-14415960D02*
X12987920Y-14425484D01*
X12987920Y-14425484D02*
X12949825Y-14425484D01*
X12949825Y-14425484D02*
X12930777Y-14415960D01*
X12930777Y-14415960D02*
X12921253Y-14396912D01*
X12921253Y-14396912D02*
X12921253Y-14320722D01*
X12921253Y-14320722D02*
X12930777Y-14301674D01*
X12930777Y-14301674D02*
X12949825Y-14292150D01*
X12949825Y-14292150D02*
X12987920Y-14292150D01*
X12987920Y-14292150D02*
X13006968Y-14301674D01*
X13006968Y-14301674D02*
X13016491Y-14320722D01*
X13016491Y-14320722D02*
X13016491Y-14339769D01*
X13016491Y-14339769D02*
X12921253Y-14358817D01*
X13092682Y-14415960D02*
X13111730Y-14425484D01*
X13111730Y-14425484D02*
X13149825Y-14425484D01*
X13149825Y-14425484D02*
X13168872Y-14415960D01*
X13168872Y-14415960D02*
X13178396Y-14396912D01*
X13178396Y-14396912D02*
X13178396Y-14387388D01*
X13178396Y-14387388D02*
X13168872Y-14368341D01*
X13168872Y-14368341D02*
X13149825Y-14358817D01*
X13149825Y-14358817D02*
X13121253Y-14358817D01*
X13121253Y-14358817D02*
X13102206Y-14349293D01*
X13102206Y-14349293D02*
X13092682Y-14330246D01*
X13092682Y-14330246D02*
X13092682Y-14320722D01*
X13092682Y-14320722D02*
X13102206Y-14301674D01*
X13102206Y-14301674D02*
X13121253Y-14292150D01*
X13121253Y-14292150D02*
X13149825Y-14292150D01*
X13149825Y-14292150D02*
X13168872Y-14301674D01*
X13416492Y-14349293D02*
X13568873Y-14349293D01*
X13492682Y-14425484D02*
X13492682Y-14273103D01*
X13921253Y-14425484D02*
X13806968Y-14425484D01*
X13864111Y-14425484D02*
X13864111Y-14225484D01*
X13864111Y-14225484D02*
X13845063Y-14254055D01*
X13845063Y-14254055D02*
X13826015Y-14273103D01*
X13826015Y-14273103D02*
X13806968Y-14282627D01*
X14149825Y-14415960D02*
X14168873Y-14425484D01*
X14168873Y-14425484D02*
X14206968Y-14425484D01*
X14206968Y-14425484D02*
X14226015Y-14415960D01*
X14226015Y-14415960D02*
X14235539Y-14396912D01*
X14235539Y-14396912D02*
X14235539Y-14387388D01*
X14235539Y-14387388D02*
X14226015Y-14368341D01*
X14226015Y-14368341D02*
X14206968Y-14358817D01*
X14206968Y-14358817D02*
X14178396Y-14358817D01*
X14178396Y-14358817D02*
X14159349Y-14349293D01*
X14159349Y-14349293D02*
X14149825Y-14330246D01*
X14149825Y-14330246D02*
X14149825Y-14320722D01*
X14149825Y-14320722D02*
X14159349Y-14301674D01*
X14159349Y-14301674D02*
X14178396Y-14292150D01*
X14178396Y-14292150D02*
X14206968Y-14292150D01*
X14206968Y-14292150D02*
X14226015Y-14301674D01*
X14349825Y-14425484D02*
X14330777Y-14415960D01*
X14330777Y-14415960D02*
X14321254Y-14396912D01*
X14321254Y-14396912D02*
X14321254Y-14225484D01*
X14454587Y-14425484D02*
X14435539Y-14415960D01*
X14435539Y-14415960D02*
X14426015Y-14406436D01*
X14426015Y-14406436D02*
X14416492Y-14387388D01*
X14416492Y-14387388D02*
X14416492Y-14330246D01*
X14416492Y-14330246D02*
X14426015Y-14311198D01*
X14426015Y-14311198D02*
X14435539Y-14301674D01*
X14435539Y-14301674D02*
X14454587Y-14292150D01*
X14454587Y-14292150D02*
X14483158Y-14292150D01*
X14483158Y-14292150D02*
X14502206Y-14301674D01*
X14502206Y-14301674D02*
X14511730Y-14311198D01*
X14511730Y-14311198D02*
X14521254Y-14330246D01*
X14521254Y-14330246D02*
X14521254Y-14387388D01*
X14521254Y-14387388D02*
X14511730Y-14406436D01*
X14511730Y-14406436D02*
X14502206Y-14415960D01*
X14502206Y-14415960D02*
X14483158Y-14425484D01*
X14483158Y-14425484D02*
X14454587Y-14425484D01*
X14578396Y-14292150D02*
X14654587Y-14292150D01*
X14606968Y-14225484D02*
X14606968Y-14396912D01*
X14606968Y-14396912D02*
X14616492Y-14415960D01*
X14616492Y-14415960D02*
X14635539Y-14425484D01*
X14635539Y-14425484D02*
X14654587Y-14425484D01*
X14702206Y-14501674D02*
X14711730Y-14492150D01*
X14711730Y-14492150D02*
X14730777Y-14463579D01*
X14730777Y-14463579D02*
X14740301Y-14444531D01*
X14740301Y-14444531D02*
X14749825Y-14415960D01*
X14749825Y-14415960D02*
X14759349Y-14368341D01*
X14759349Y-14368341D02*
X14759349Y-14330246D01*
X14759349Y-14330246D02*
X14749825Y-14282627D01*
X14749825Y-14282627D02*
X14740301Y-14254055D01*
X14740301Y-14254055D02*
X14730777Y-14235008D01*
X14730777Y-14235008D02*
X14711730Y-14206436D01*
X14711730Y-14206436D02*
X14702206Y-14196912D01*
X15064111Y-14501674D02*
X15054587Y-14492150D01*
X15054587Y-14492150D02*
X15035539Y-14463579D01*
X15035539Y-14463579D02*
X15026015Y-14444531D01*
X15026015Y-14444531D02*
X15016492Y-14415960D01*
X15016492Y-14415960D02*
X15006968Y-14368341D01*
X15006968Y-14368341D02*
X15006968Y-14330246D01*
X15006968Y-14330246D02*
X15016492Y-14282627D01*
X15016492Y-14282627D02*
X15026015Y-14254055D01*
X15026015Y-14254055D02*
X15035539Y-14235008D01*
X15035539Y-14235008D02*
X15054587Y-14206436D01*
X15054587Y-14206436D02*
X15064111Y-14196912D01*
X15140301Y-14292150D02*
X15140301Y-14425484D01*
X15140301Y-14311198D02*
X15149825Y-14301674D01*
X15149825Y-14301674D02*
X15168873Y-14292150D01*
X15168873Y-14292150D02*
X15197444Y-14292150D01*
X15197444Y-14292150D02*
X15216492Y-14301674D01*
X15216492Y-14301674D02*
X15226015Y-14320722D01*
X15226015Y-14320722D02*
X15226015Y-14425484D01*
X15349825Y-14425484D02*
X15330777Y-14415960D01*
X15330777Y-14415960D02*
X15321254Y-14406436D01*
X15321254Y-14406436D02*
X15311730Y-14387388D01*
X15311730Y-14387388D02*
X15311730Y-14330246D01*
X15311730Y-14330246D02*
X15321254Y-14311198D01*
X15321254Y-14311198D02*
X15330777Y-14301674D01*
X15330777Y-14301674D02*
X15349825Y-14292150D01*
X15349825Y-14292150D02*
X15378396Y-14292150D01*
X15378396Y-14292150D02*
X15397444Y-14301674D01*
X15397444Y-14301674D02*
X15406968Y-14311198D01*
X15406968Y-14311198D02*
X15416492Y-14330246D01*
X15416492Y-14330246D02*
X15416492Y-14387388D01*
X15416492Y-14387388D02*
X15406968Y-14406436D01*
X15406968Y-14406436D02*
X15397444Y-14415960D01*
X15397444Y-14415960D02*
X15378396Y-14425484D01*
X15378396Y-14425484D02*
X15349825Y-14425484D01*
X15473635Y-14292150D02*
X15549825Y-14292150D01*
X15502206Y-14225484D02*
X15502206Y-14396912D01*
X15502206Y-14396912D02*
X15511730Y-14415960D01*
X15511730Y-14415960D02*
X15530777Y-14425484D01*
X15530777Y-14425484D02*
X15549825Y-14425484D01*
X15768873Y-14292150D02*
X15768873Y-14492150D01*
X15768873Y-14301674D02*
X15787920Y-14292150D01*
X15787920Y-14292150D02*
X15826016Y-14292150D01*
X15826016Y-14292150D02*
X15845063Y-14301674D01*
X15845063Y-14301674D02*
X15854587Y-14311198D01*
X15854587Y-14311198D02*
X15864111Y-14330246D01*
X15864111Y-14330246D02*
X15864111Y-14387388D01*
X15864111Y-14387388D02*
X15854587Y-14406436D01*
X15854587Y-14406436D02*
X15845063Y-14415960D01*
X15845063Y-14415960D02*
X15826016Y-14425484D01*
X15826016Y-14425484D02*
X15787920Y-14425484D01*
X15787920Y-14425484D02*
X15768873Y-14415960D01*
X15978396Y-14425484D02*
X15959349Y-14415960D01*
X15959349Y-14415960D02*
X15949825Y-14396912D01*
X15949825Y-14396912D02*
X15949825Y-14225484D01*
X16140301Y-14425484D02*
X16140301Y-14320722D01*
X16140301Y-14320722D02*
X16130777Y-14301674D01*
X16130777Y-14301674D02*
X16111730Y-14292150D01*
X16111730Y-14292150D02*
X16073635Y-14292150D01*
X16073635Y-14292150D02*
X16054587Y-14301674D01*
X16140301Y-14415960D02*
X16121254Y-14425484D01*
X16121254Y-14425484D02*
X16073635Y-14425484D01*
X16073635Y-14425484D02*
X16054587Y-14415960D01*
X16054587Y-14415960D02*
X16045063Y-14396912D01*
X16045063Y-14396912D02*
X16045063Y-14377865D01*
X16045063Y-14377865D02*
X16054587Y-14358817D01*
X16054587Y-14358817D02*
X16073635Y-14349293D01*
X16073635Y-14349293D02*
X16121254Y-14349293D01*
X16121254Y-14349293D02*
X16140301Y-14339769D01*
X16206968Y-14292150D02*
X16283158Y-14292150D01*
X16235539Y-14225484D02*
X16235539Y-14396912D01*
X16235539Y-14396912D02*
X16245063Y-14415960D01*
X16245063Y-14415960D02*
X16264111Y-14425484D01*
X16264111Y-14425484D02*
X16283158Y-14425484D01*
X16426016Y-14415960D02*
X16406968Y-14425484D01*
X16406968Y-14425484D02*
X16368873Y-14425484D01*
X16368873Y-14425484D02*
X16349825Y-14415960D01*
X16349825Y-14415960D02*
X16340301Y-14396912D01*
X16340301Y-14396912D02*
X16340301Y-14320722D01*
X16340301Y-14320722D02*
X16349825Y-14301674D01*
X16349825Y-14301674D02*
X16368873Y-14292150D01*
X16368873Y-14292150D02*
X16406968Y-14292150D01*
X16406968Y-14292150D02*
X16426016Y-14301674D01*
X16426016Y-14301674D02*
X16435539Y-14320722D01*
X16435539Y-14320722D02*
X16435539Y-14339769D01*
X16435539Y-14339769D02*
X16340301Y-14358817D01*
X16606968Y-14425484D02*
X16606968Y-14225484D01*
X16606968Y-14415960D02*
X16587920Y-14425484D01*
X16587920Y-14425484D02*
X16549825Y-14425484D01*
X16549825Y-14425484D02*
X16530777Y-14415960D01*
X16530777Y-14415960D02*
X16521254Y-14406436D01*
X16521254Y-14406436D02*
X16511730Y-14387388D01*
X16511730Y-14387388D02*
X16511730Y-14330246D01*
X16511730Y-14330246D02*
X16521254Y-14311198D01*
X16521254Y-14311198D02*
X16530777Y-14301674D01*
X16530777Y-14301674D02*
X16549825Y-14292150D01*
X16549825Y-14292150D02*
X16587920Y-14292150D01*
X16587920Y-14292150D02*
X16606968Y-14301674D01*
X16683158Y-14501674D02*
X16692682Y-14492150D01*
X16692682Y-14492150D02*
X16711730Y-14463579D01*
X16711730Y-14463579D02*
X16721254Y-14444531D01*
X16721254Y-14444531D02*
X16730777Y-14415960D01*
X16730777Y-14415960D02*
X16740301Y-14368341D01*
X16740301Y-14368341D02*
X16740301Y-14330246D01*
X16740301Y-14330246D02*
X16730777Y-14282627D01*
X16730777Y-14282627D02*
X16721254Y-14254055D01*
X16721254Y-14254055D02*
X16711730Y-14235008D01*
X16711730Y-14235008D02*
X16692682Y-14206436D01*
X16692682Y-14206436D02*
X16683158Y-14196912D01*
D14*
X8420470Y-14548470D02*
X8420470Y-14647530D01*
X8370940Y-14598000D02*
X8470000Y-14598000D01*
D11*
X8768872Y-14489484D02*
X8787920Y-14489484D01*
X8787920Y-14489484D02*
X8806967Y-14499008D01*
X8806967Y-14499008D02*
X8816491Y-14508531D01*
X8816491Y-14508531D02*
X8826015Y-14527579D01*
X8826015Y-14527579D02*
X8835539Y-14565674D01*
X8835539Y-14565674D02*
X8835539Y-14613293D01*
X8835539Y-14613293D02*
X8826015Y-14651388D01*
X8826015Y-14651388D02*
X8816491Y-14670436D01*
X8816491Y-14670436D02*
X8806967Y-14679960D01*
X8806967Y-14679960D02*
X8787920Y-14689484D01*
X8787920Y-14689484D02*
X8768872Y-14689484D01*
X8768872Y-14689484D02*
X8749824Y-14679960D01*
X8749824Y-14679960D02*
X8740301Y-14670436D01*
X8740301Y-14670436D02*
X8730777Y-14651388D01*
X8730777Y-14651388D02*
X8721253Y-14613293D01*
X8721253Y-14613293D02*
X8721253Y-14565674D01*
X8721253Y-14565674D02*
X8730777Y-14527579D01*
X8730777Y-14527579D02*
X8740301Y-14508531D01*
X8740301Y-14508531D02*
X8749824Y-14499008D01*
X8749824Y-14499008D02*
X8768872Y-14489484D01*
X8921253Y-14670436D02*
X8930777Y-14679960D01*
X8930777Y-14679960D02*
X8921253Y-14689484D01*
X8921253Y-14689484D02*
X8911729Y-14679960D01*
X8911729Y-14679960D02*
X8921253Y-14670436D01*
X8921253Y-14670436D02*
X8921253Y-14689484D01*
X9026015Y-14689484D02*
X9064110Y-14689484D01*
X9064110Y-14689484D02*
X9083158Y-14679960D01*
X9083158Y-14679960D02*
X9092682Y-14670436D01*
X9092682Y-14670436D02*
X9111729Y-14641865D01*
X9111729Y-14641865D02*
X9121253Y-14603769D01*
X9121253Y-14603769D02*
X9121253Y-14527579D01*
X9121253Y-14527579D02*
X9111729Y-14508531D01*
X9111729Y-14508531D02*
X9102205Y-14499008D01*
X9102205Y-14499008D02*
X9083158Y-14489484D01*
X9083158Y-14489484D02*
X9045063Y-14489484D01*
X9045063Y-14489484D02*
X9026015Y-14499008D01*
X9026015Y-14499008D02*
X9016491Y-14508531D01*
X9016491Y-14508531D02*
X9006967Y-14527579D01*
X9006967Y-14527579D02*
X9006967Y-14575198D01*
X9006967Y-14575198D02*
X9016491Y-14594246D01*
X9016491Y-14594246D02*
X9026015Y-14603769D01*
X9026015Y-14603769D02*
X9045063Y-14613293D01*
X9045063Y-14613293D02*
X9083158Y-14613293D01*
X9083158Y-14613293D02*
X9102205Y-14603769D01*
X9102205Y-14603769D02*
X9111729Y-14594246D01*
X9111729Y-14594246D02*
X9121253Y-14575198D01*
X9216491Y-14689484D02*
X9254586Y-14689484D01*
X9254586Y-14689484D02*
X9273634Y-14679960D01*
X9273634Y-14679960D02*
X9283158Y-14670436D01*
X9283158Y-14670436D02*
X9302205Y-14641865D01*
X9302205Y-14641865D02*
X9311729Y-14603769D01*
X9311729Y-14603769D02*
X9311729Y-14527579D01*
X9311729Y-14527579D02*
X9302205Y-14508531D01*
X9302205Y-14508531D02*
X9292682Y-14499008D01*
X9292682Y-14499008D02*
X9273634Y-14489484D01*
X9273634Y-14489484D02*
X9235539Y-14489484D01*
X9235539Y-14489484D02*
X9216491Y-14499008D01*
X9216491Y-14499008D02*
X9206967Y-14508531D01*
X9206967Y-14508531D02*
X9197444Y-14527579D01*
X9197444Y-14527579D02*
X9197444Y-14575198D01*
X9197444Y-14575198D02*
X9206967Y-14594246D01*
X9206967Y-14594246D02*
X9216491Y-14603769D01*
X9216491Y-14603769D02*
X9235539Y-14613293D01*
X9235539Y-14613293D02*
X9273634Y-14613293D01*
X9273634Y-14613293D02*
X9292682Y-14603769D01*
X9292682Y-14603769D02*
X9302205Y-14594246D01*
X9302205Y-14594246D02*
X9311729Y-14575198D01*
X9502205Y-14689484D02*
X9387920Y-14689484D01*
X9445063Y-14689484D02*
X9445063Y-14489484D01*
X9445063Y-14489484D02*
X9426015Y-14518055D01*
X9426015Y-14518055D02*
X9406967Y-14537103D01*
X9406967Y-14537103D02*
X9387920Y-14546627D01*
X9587920Y-14689484D02*
X9587920Y-14556150D01*
X9587920Y-14575198D02*
X9597444Y-14565674D01*
X9597444Y-14565674D02*
X9616491Y-14556150D01*
X9616491Y-14556150D02*
X9645063Y-14556150D01*
X9645063Y-14556150D02*
X9664110Y-14565674D01*
X9664110Y-14565674D02*
X9673634Y-14584722D01*
X9673634Y-14584722D02*
X9673634Y-14689484D01*
X9673634Y-14584722D02*
X9683158Y-14565674D01*
X9683158Y-14565674D02*
X9702205Y-14556150D01*
X9702205Y-14556150D02*
X9730777Y-14556150D01*
X9730777Y-14556150D02*
X9749825Y-14565674D01*
X9749825Y-14565674D02*
X9759348Y-14584722D01*
X9759348Y-14584722D02*
X9759348Y-14689484D01*
X9854586Y-14689484D02*
X9854586Y-14556150D01*
X9854586Y-14575198D02*
X9864110Y-14565674D01*
X9864110Y-14565674D02*
X9883158Y-14556150D01*
X9883158Y-14556150D02*
X9911729Y-14556150D01*
X9911729Y-14556150D02*
X9930777Y-14565674D01*
X9930777Y-14565674D02*
X9940301Y-14584722D01*
X9940301Y-14584722D02*
X9940301Y-14689484D01*
X9940301Y-14584722D02*
X9949825Y-14565674D01*
X9949825Y-14565674D02*
X9968872Y-14556150D01*
X9968872Y-14556150D02*
X9997444Y-14556150D01*
X9997444Y-14556150D02*
X10016491Y-14565674D01*
X10016491Y-14565674D02*
X10026015Y-14584722D01*
X10026015Y-14584722D02*
X10026015Y-14689484D01*
X10416491Y-14479960D02*
X10245063Y-14737103D01*
X10673634Y-14489484D02*
X10692682Y-14489484D01*
X10692682Y-14489484D02*
X10711729Y-14499008D01*
X10711729Y-14499008D02*
X10721253Y-14508531D01*
X10721253Y-14508531D02*
X10730777Y-14527579D01*
X10730777Y-14527579D02*
X10740301Y-14565674D01*
X10740301Y-14565674D02*
X10740301Y-14613293D01*
X10740301Y-14613293D02*
X10730777Y-14651388D01*
X10730777Y-14651388D02*
X10721253Y-14670436D01*
X10721253Y-14670436D02*
X10711729Y-14679960D01*
X10711729Y-14679960D02*
X10692682Y-14689484D01*
X10692682Y-14689484D02*
X10673634Y-14689484D01*
X10673634Y-14689484D02*
X10654587Y-14679960D01*
X10654587Y-14679960D02*
X10645063Y-14670436D01*
X10645063Y-14670436D02*
X10635539Y-14651388D01*
X10635539Y-14651388D02*
X10626015Y-14613293D01*
X10626015Y-14613293D02*
X10626015Y-14565674D01*
X10626015Y-14565674D02*
X10635539Y-14527579D01*
X10635539Y-14527579D02*
X10645063Y-14508531D01*
X10645063Y-14508531D02*
X10654587Y-14499008D01*
X10654587Y-14499008D02*
X10673634Y-14489484D01*
X10826015Y-14670436D02*
X10835539Y-14679960D01*
X10835539Y-14679960D02*
X10826015Y-14689484D01*
X10826015Y-14689484D02*
X10816491Y-14679960D01*
X10816491Y-14679960D02*
X10826015Y-14670436D01*
X10826015Y-14670436D02*
X10826015Y-14689484D01*
X10959348Y-14489484D02*
X10978396Y-14489484D01*
X10978396Y-14489484D02*
X10997444Y-14499008D01*
X10997444Y-14499008D02*
X11006968Y-14508531D01*
X11006968Y-14508531D02*
X11016491Y-14527579D01*
X11016491Y-14527579D02*
X11026015Y-14565674D01*
X11026015Y-14565674D02*
X11026015Y-14613293D01*
X11026015Y-14613293D02*
X11016491Y-14651388D01*
X11016491Y-14651388D02*
X11006968Y-14670436D01*
X11006968Y-14670436D02*
X10997444Y-14679960D01*
X10997444Y-14679960D02*
X10978396Y-14689484D01*
X10978396Y-14689484D02*
X10959348Y-14689484D01*
X10959348Y-14689484D02*
X10940301Y-14679960D01*
X10940301Y-14679960D02*
X10930777Y-14670436D01*
X10930777Y-14670436D02*
X10921253Y-14651388D01*
X10921253Y-14651388D02*
X10911729Y-14613293D01*
X10911729Y-14613293D02*
X10911729Y-14565674D01*
X10911729Y-14565674D02*
X10921253Y-14527579D01*
X10921253Y-14527579D02*
X10930777Y-14508531D01*
X10930777Y-14508531D02*
X10940301Y-14499008D01*
X10940301Y-14499008D02*
X10959348Y-14489484D01*
X11092682Y-14489484D02*
X11216491Y-14489484D01*
X11216491Y-14489484D02*
X11149825Y-14565674D01*
X11149825Y-14565674D02*
X11178396Y-14565674D01*
X11178396Y-14565674D02*
X11197444Y-14575198D01*
X11197444Y-14575198D02*
X11206967Y-14584722D01*
X11206967Y-14584722D02*
X11216491Y-14603769D01*
X11216491Y-14603769D02*
X11216491Y-14651388D01*
X11216491Y-14651388D02*
X11206967Y-14670436D01*
X11206967Y-14670436D02*
X11197444Y-14679960D01*
X11197444Y-14679960D02*
X11178396Y-14689484D01*
X11178396Y-14689484D02*
X11121253Y-14689484D01*
X11121253Y-14689484D02*
X11102206Y-14679960D01*
X11102206Y-14679960D02*
X11092682Y-14670436D01*
X11311729Y-14689484D02*
X11349825Y-14689484D01*
X11349825Y-14689484D02*
X11368872Y-14679960D01*
X11368872Y-14679960D02*
X11378396Y-14670436D01*
X11378396Y-14670436D02*
X11397444Y-14641865D01*
X11397444Y-14641865D02*
X11406967Y-14603769D01*
X11406967Y-14603769D02*
X11406967Y-14527579D01*
X11406967Y-14527579D02*
X11397444Y-14508531D01*
X11397444Y-14508531D02*
X11387920Y-14499008D01*
X11387920Y-14499008D02*
X11368872Y-14489484D01*
X11368872Y-14489484D02*
X11330777Y-14489484D01*
X11330777Y-14489484D02*
X11311729Y-14499008D01*
X11311729Y-14499008D02*
X11302206Y-14508531D01*
X11302206Y-14508531D02*
X11292682Y-14527579D01*
X11292682Y-14527579D02*
X11292682Y-14575198D01*
X11292682Y-14575198D02*
X11302206Y-14594246D01*
X11302206Y-14594246D02*
X11311729Y-14603769D01*
X11311729Y-14603769D02*
X11330777Y-14613293D01*
X11330777Y-14613293D02*
X11368872Y-14613293D01*
X11368872Y-14613293D02*
X11387920Y-14603769D01*
X11387920Y-14603769D02*
X11397444Y-14594246D01*
X11397444Y-14594246D02*
X11406967Y-14575198D01*
X11530777Y-14489484D02*
X11549825Y-14489484D01*
X11549825Y-14489484D02*
X11568872Y-14499008D01*
X11568872Y-14499008D02*
X11578396Y-14508531D01*
X11578396Y-14508531D02*
X11587920Y-14527579D01*
X11587920Y-14527579D02*
X11597444Y-14565674D01*
X11597444Y-14565674D02*
X11597444Y-14613293D01*
X11597444Y-14613293D02*
X11587920Y-14651388D01*
X11587920Y-14651388D02*
X11578396Y-14670436D01*
X11578396Y-14670436D02*
X11568872Y-14679960D01*
X11568872Y-14679960D02*
X11549825Y-14689484D01*
X11549825Y-14689484D02*
X11530777Y-14689484D01*
X11530777Y-14689484D02*
X11511729Y-14679960D01*
X11511729Y-14679960D02*
X11502206Y-14670436D01*
X11502206Y-14670436D02*
X11492682Y-14651388D01*
X11492682Y-14651388D02*
X11483158Y-14613293D01*
X11483158Y-14613293D02*
X11483158Y-14565674D01*
X11483158Y-14565674D02*
X11492682Y-14527579D01*
X11492682Y-14527579D02*
X11502206Y-14508531D01*
X11502206Y-14508531D02*
X11511729Y-14499008D01*
X11511729Y-14499008D02*
X11530777Y-14489484D01*
X11673634Y-14489484D02*
X11673634Y-14527579D01*
X11749825Y-14489484D02*
X11749825Y-14527579D01*
X12045063Y-14765674D02*
X12035539Y-14756150D01*
X12035539Y-14756150D02*
X12016491Y-14727579D01*
X12016491Y-14727579D02*
X12006968Y-14708531D01*
X12006968Y-14708531D02*
X11997444Y-14679960D01*
X11997444Y-14679960D02*
X11987920Y-14632341D01*
X11987920Y-14632341D02*
X11987920Y-14594246D01*
X11987920Y-14594246D02*
X11997444Y-14546627D01*
X11997444Y-14546627D02*
X12006968Y-14518055D01*
X12006968Y-14518055D02*
X12016491Y-14499008D01*
X12016491Y-14499008D02*
X12035539Y-14470436D01*
X12035539Y-14470436D02*
X12045063Y-14460912D01*
X12102206Y-14489484D02*
X12226015Y-14489484D01*
X12226015Y-14489484D02*
X12159348Y-14565674D01*
X12159348Y-14565674D02*
X12187920Y-14565674D01*
X12187920Y-14565674D02*
X12206968Y-14575198D01*
X12206968Y-14575198D02*
X12216491Y-14584722D01*
X12216491Y-14584722D02*
X12226015Y-14603769D01*
X12226015Y-14603769D02*
X12226015Y-14651388D01*
X12226015Y-14651388D02*
X12216491Y-14670436D01*
X12216491Y-14670436D02*
X12206968Y-14679960D01*
X12206968Y-14679960D02*
X12187920Y-14689484D01*
X12187920Y-14689484D02*
X12130777Y-14689484D01*
X12130777Y-14689484D02*
X12111729Y-14679960D01*
X12111729Y-14679960D02*
X12102206Y-14670436D01*
X12464110Y-14689484D02*
X12464110Y-14489484D01*
X12549825Y-14689484D02*
X12549825Y-14584722D01*
X12549825Y-14584722D02*
X12540301Y-14565674D01*
X12540301Y-14565674D02*
X12521253Y-14556150D01*
X12521253Y-14556150D02*
X12492682Y-14556150D01*
X12492682Y-14556150D02*
X12473634Y-14565674D01*
X12473634Y-14565674D02*
X12464110Y-14575198D01*
X12673634Y-14689484D02*
X12654587Y-14679960D01*
X12654587Y-14679960D02*
X12645063Y-14670436D01*
X12645063Y-14670436D02*
X12635539Y-14651388D01*
X12635539Y-14651388D02*
X12635539Y-14594246D01*
X12635539Y-14594246D02*
X12645063Y-14575198D01*
X12645063Y-14575198D02*
X12654587Y-14565674D01*
X12654587Y-14565674D02*
X12673634Y-14556150D01*
X12673634Y-14556150D02*
X12702206Y-14556150D01*
X12702206Y-14556150D02*
X12721253Y-14565674D01*
X12721253Y-14565674D02*
X12730777Y-14575198D01*
X12730777Y-14575198D02*
X12740301Y-14594246D01*
X12740301Y-14594246D02*
X12740301Y-14651388D01*
X12740301Y-14651388D02*
X12730777Y-14670436D01*
X12730777Y-14670436D02*
X12721253Y-14679960D01*
X12721253Y-14679960D02*
X12702206Y-14689484D01*
X12702206Y-14689484D02*
X12673634Y-14689484D01*
X12854587Y-14689484D02*
X12835539Y-14679960D01*
X12835539Y-14679960D02*
X12826015Y-14660912D01*
X12826015Y-14660912D02*
X12826015Y-14489484D01*
X13006968Y-14679960D02*
X12987920Y-14689484D01*
X12987920Y-14689484D02*
X12949825Y-14689484D01*
X12949825Y-14689484D02*
X12930777Y-14679960D01*
X12930777Y-14679960D02*
X12921253Y-14660912D01*
X12921253Y-14660912D02*
X12921253Y-14584722D01*
X12921253Y-14584722D02*
X12930777Y-14565674D01*
X12930777Y-14565674D02*
X12949825Y-14556150D01*
X12949825Y-14556150D02*
X12987920Y-14556150D01*
X12987920Y-14556150D02*
X13006968Y-14565674D01*
X13006968Y-14565674D02*
X13016491Y-14584722D01*
X13016491Y-14584722D02*
X13016491Y-14603769D01*
X13016491Y-14603769D02*
X12921253Y-14622817D01*
X13092682Y-14679960D02*
X13111730Y-14689484D01*
X13111730Y-14689484D02*
X13149825Y-14689484D01*
X13149825Y-14689484D02*
X13168872Y-14679960D01*
X13168872Y-14679960D02*
X13178396Y-14660912D01*
X13178396Y-14660912D02*
X13178396Y-14651388D01*
X13178396Y-14651388D02*
X13168872Y-14632341D01*
X13168872Y-14632341D02*
X13149825Y-14622817D01*
X13149825Y-14622817D02*
X13121253Y-14622817D01*
X13121253Y-14622817D02*
X13102206Y-14613293D01*
X13102206Y-14613293D02*
X13092682Y-14594246D01*
X13092682Y-14594246D02*
X13092682Y-14584722D01*
X13092682Y-14584722D02*
X13102206Y-14565674D01*
X13102206Y-14565674D02*
X13121253Y-14556150D01*
X13121253Y-14556150D02*
X13149825Y-14556150D01*
X13149825Y-14556150D02*
X13168872Y-14565674D01*
X13245063Y-14765674D02*
X13254587Y-14756150D01*
X13254587Y-14756150D02*
X13273634Y-14727579D01*
X13273634Y-14727579D02*
X13283158Y-14708531D01*
X13283158Y-14708531D02*
X13292682Y-14679960D01*
X13292682Y-14679960D02*
X13302206Y-14632341D01*
X13302206Y-14632341D02*
X13302206Y-14594246D01*
X13302206Y-14594246D02*
X13292682Y-14546627D01*
X13292682Y-14546627D02*
X13283158Y-14518055D01*
X13283158Y-14518055D02*
X13273634Y-14499008D01*
X13273634Y-14499008D02*
X13254587Y-14470436D01*
X13254587Y-14470436D02*
X13245063Y-14460912D01*
X13606968Y-14765674D02*
X13597444Y-14756150D01*
X13597444Y-14756150D02*
X13578396Y-14727579D01*
X13578396Y-14727579D02*
X13568872Y-14708531D01*
X13568872Y-14708531D02*
X13559349Y-14679960D01*
X13559349Y-14679960D02*
X13549825Y-14632341D01*
X13549825Y-14632341D02*
X13549825Y-14594246D01*
X13549825Y-14594246D02*
X13559349Y-14546627D01*
X13559349Y-14546627D02*
X13568872Y-14518055D01*
X13568872Y-14518055D02*
X13578396Y-14499008D01*
X13578396Y-14499008D02*
X13597444Y-14470436D01*
X13597444Y-14470436D02*
X13606968Y-14460912D01*
X13683158Y-14556150D02*
X13683158Y-14689484D01*
X13683158Y-14575198D02*
X13692682Y-14565674D01*
X13692682Y-14565674D02*
X13711730Y-14556150D01*
X13711730Y-14556150D02*
X13740301Y-14556150D01*
X13740301Y-14556150D02*
X13759349Y-14565674D01*
X13759349Y-14565674D02*
X13768872Y-14584722D01*
X13768872Y-14584722D02*
X13768872Y-14689484D01*
X13892682Y-14689484D02*
X13873634Y-14679960D01*
X13873634Y-14679960D02*
X13864111Y-14670436D01*
X13864111Y-14670436D02*
X13854587Y-14651388D01*
X13854587Y-14651388D02*
X13854587Y-14594246D01*
X13854587Y-14594246D02*
X13864111Y-14575198D01*
X13864111Y-14575198D02*
X13873634Y-14565674D01*
X13873634Y-14565674D02*
X13892682Y-14556150D01*
X13892682Y-14556150D02*
X13921253Y-14556150D01*
X13921253Y-14556150D02*
X13940301Y-14565674D01*
X13940301Y-14565674D02*
X13949825Y-14575198D01*
X13949825Y-14575198D02*
X13959349Y-14594246D01*
X13959349Y-14594246D02*
X13959349Y-14651388D01*
X13959349Y-14651388D02*
X13949825Y-14670436D01*
X13949825Y-14670436D02*
X13940301Y-14679960D01*
X13940301Y-14679960D02*
X13921253Y-14689484D01*
X13921253Y-14689484D02*
X13892682Y-14689484D01*
X14016492Y-14556150D02*
X14092682Y-14556150D01*
X14045063Y-14489484D02*
X14045063Y-14660912D01*
X14045063Y-14660912D02*
X14054587Y-14679960D01*
X14054587Y-14679960D02*
X14073634Y-14689484D01*
X14073634Y-14689484D02*
X14092682Y-14689484D01*
X14311730Y-14556150D02*
X14311730Y-14756150D01*
X14311730Y-14565674D02*
X14330777Y-14556150D01*
X14330777Y-14556150D02*
X14368873Y-14556150D01*
X14368873Y-14556150D02*
X14387920Y-14565674D01*
X14387920Y-14565674D02*
X14397444Y-14575198D01*
X14397444Y-14575198D02*
X14406968Y-14594246D01*
X14406968Y-14594246D02*
X14406968Y-14651388D01*
X14406968Y-14651388D02*
X14397444Y-14670436D01*
X14397444Y-14670436D02*
X14387920Y-14679960D01*
X14387920Y-14679960D02*
X14368873Y-14689484D01*
X14368873Y-14689484D02*
X14330777Y-14689484D01*
X14330777Y-14689484D02*
X14311730Y-14679960D01*
X14521253Y-14689484D02*
X14502206Y-14679960D01*
X14502206Y-14679960D02*
X14492682Y-14660912D01*
X14492682Y-14660912D02*
X14492682Y-14489484D01*
X14683158Y-14689484D02*
X14683158Y-14584722D01*
X14683158Y-14584722D02*
X14673634Y-14565674D01*
X14673634Y-14565674D02*
X14654587Y-14556150D01*
X14654587Y-14556150D02*
X14616492Y-14556150D01*
X14616492Y-14556150D02*
X14597444Y-14565674D01*
X14683158Y-14679960D02*
X14664111Y-14689484D01*
X14664111Y-14689484D02*
X14616492Y-14689484D01*
X14616492Y-14689484D02*
X14597444Y-14679960D01*
X14597444Y-14679960D02*
X14587920Y-14660912D01*
X14587920Y-14660912D02*
X14587920Y-14641865D01*
X14587920Y-14641865D02*
X14597444Y-14622817D01*
X14597444Y-14622817D02*
X14616492Y-14613293D01*
X14616492Y-14613293D02*
X14664111Y-14613293D01*
X14664111Y-14613293D02*
X14683158Y-14603769D01*
X14749825Y-14556150D02*
X14826015Y-14556150D01*
X14778396Y-14489484D02*
X14778396Y-14660912D01*
X14778396Y-14660912D02*
X14787920Y-14679960D01*
X14787920Y-14679960D02*
X14806968Y-14689484D01*
X14806968Y-14689484D02*
X14826015Y-14689484D01*
X14968873Y-14679960D02*
X14949825Y-14689484D01*
X14949825Y-14689484D02*
X14911730Y-14689484D01*
X14911730Y-14689484D02*
X14892682Y-14679960D01*
X14892682Y-14679960D02*
X14883158Y-14660912D01*
X14883158Y-14660912D02*
X14883158Y-14584722D01*
X14883158Y-14584722D02*
X14892682Y-14565674D01*
X14892682Y-14565674D02*
X14911730Y-14556150D01*
X14911730Y-14556150D02*
X14949825Y-14556150D01*
X14949825Y-14556150D02*
X14968873Y-14565674D01*
X14968873Y-14565674D02*
X14978396Y-14584722D01*
X14978396Y-14584722D02*
X14978396Y-14603769D01*
X14978396Y-14603769D02*
X14883158Y-14622817D01*
X15149825Y-14689484D02*
X15149825Y-14489484D01*
X15149825Y-14679960D02*
X15130777Y-14689484D01*
X15130777Y-14689484D02*
X15092682Y-14689484D01*
X15092682Y-14689484D02*
X15073634Y-14679960D01*
X15073634Y-14679960D02*
X15064111Y-14670436D01*
X15064111Y-14670436D02*
X15054587Y-14651388D01*
X15054587Y-14651388D02*
X15054587Y-14594246D01*
X15054587Y-14594246D02*
X15064111Y-14575198D01*
X15064111Y-14575198D02*
X15073634Y-14565674D01*
X15073634Y-14565674D02*
X15092682Y-14556150D01*
X15092682Y-14556150D02*
X15130777Y-14556150D01*
X15130777Y-14556150D02*
X15149825Y-14565674D01*
X15226015Y-14765674D02*
X15235539Y-14756150D01*
X15235539Y-14756150D02*
X15254587Y-14727579D01*
X15254587Y-14727579D02*
X15264111Y-14708531D01*
X15264111Y-14708531D02*
X15273634Y-14679960D01*
X15273634Y-14679960D02*
X15283158Y-14632341D01*
X15283158Y-14632341D02*
X15283158Y-14594246D01*
X15283158Y-14594246D02*
X15273634Y-14546627D01*
X15273634Y-14546627D02*
X15264111Y-14518055D01*
X15264111Y-14518055D02*
X15254587Y-14499008D01*
X15254587Y-14499008D02*
X15235539Y-14470436D01*
X15235539Y-14470436D02*
X15226015Y-14460912D01*
D15*
X8453130Y-14902730D02*
X8453130Y-14821270D01*
X8371670Y-14821270D01*
X8371670Y-14902730D01*
X8453130Y-14902730D01*
D11*
X8835539Y-14953484D02*
X8721253Y-14953484D01*
X8778396Y-14953484D02*
X8778396Y-14753484D01*
X8778396Y-14753484D02*
X8759348Y-14782055D01*
X8759348Y-14782055D02*
X8740301Y-14801103D01*
X8740301Y-14801103D02*
X8721253Y-14810627D01*
X8921253Y-14934436D02*
X8930777Y-14943960D01*
X8930777Y-14943960D02*
X8921253Y-14953484D01*
X8921253Y-14953484D02*
X8911729Y-14943960D01*
X8911729Y-14943960D02*
X8921253Y-14934436D01*
X8921253Y-14934436D02*
X8921253Y-14953484D01*
X9121253Y-14953484D02*
X9006967Y-14953484D01*
X9064110Y-14953484D02*
X9064110Y-14753484D01*
X9064110Y-14753484D02*
X9045063Y-14782055D01*
X9045063Y-14782055D02*
X9026015Y-14801103D01*
X9026015Y-14801103D02*
X9006967Y-14810627D01*
X9302205Y-14753484D02*
X9206967Y-14753484D01*
X9206967Y-14753484D02*
X9197444Y-14848722D01*
X9197444Y-14848722D02*
X9206967Y-14839198D01*
X9206967Y-14839198D02*
X9226015Y-14829674D01*
X9226015Y-14829674D02*
X9273634Y-14829674D01*
X9273634Y-14829674D02*
X9292682Y-14839198D01*
X9292682Y-14839198D02*
X9302205Y-14848722D01*
X9302205Y-14848722D02*
X9311729Y-14867769D01*
X9311729Y-14867769D02*
X9311729Y-14915388D01*
X9311729Y-14915388D02*
X9302205Y-14934436D01*
X9302205Y-14934436D02*
X9292682Y-14943960D01*
X9292682Y-14943960D02*
X9273634Y-14953484D01*
X9273634Y-14953484D02*
X9226015Y-14953484D01*
X9226015Y-14953484D02*
X9206967Y-14943960D01*
X9206967Y-14943960D02*
X9197444Y-14934436D01*
X9387920Y-14772531D02*
X9397444Y-14763008D01*
X9397444Y-14763008D02*
X9416491Y-14753484D01*
X9416491Y-14753484D02*
X9464110Y-14753484D01*
X9464110Y-14753484D02*
X9483158Y-14763008D01*
X9483158Y-14763008D02*
X9492682Y-14772531D01*
X9492682Y-14772531D02*
X9502205Y-14791579D01*
X9502205Y-14791579D02*
X9502205Y-14810627D01*
X9502205Y-14810627D02*
X9492682Y-14839198D01*
X9492682Y-14839198D02*
X9378396Y-14953484D01*
X9378396Y-14953484D02*
X9502205Y-14953484D01*
X9587920Y-14953484D02*
X9587920Y-14820150D01*
X9587920Y-14839198D02*
X9597444Y-14829674D01*
X9597444Y-14829674D02*
X9616491Y-14820150D01*
X9616491Y-14820150D02*
X9645063Y-14820150D01*
X9645063Y-14820150D02*
X9664110Y-14829674D01*
X9664110Y-14829674D02*
X9673634Y-14848722D01*
X9673634Y-14848722D02*
X9673634Y-14953484D01*
X9673634Y-14848722D02*
X9683158Y-14829674D01*
X9683158Y-14829674D02*
X9702205Y-14820150D01*
X9702205Y-14820150D02*
X9730777Y-14820150D01*
X9730777Y-14820150D02*
X9749825Y-14829674D01*
X9749825Y-14829674D02*
X9759348Y-14848722D01*
X9759348Y-14848722D02*
X9759348Y-14953484D01*
X9854586Y-14953484D02*
X9854586Y-14820150D01*
X9854586Y-14839198D02*
X9864110Y-14829674D01*
X9864110Y-14829674D02*
X9883158Y-14820150D01*
X9883158Y-14820150D02*
X9911729Y-14820150D01*
X9911729Y-14820150D02*
X9930777Y-14829674D01*
X9930777Y-14829674D02*
X9940301Y-14848722D01*
X9940301Y-14848722D02*
X9940301Y-14953484D01*
X9940301Y-14848722D02*
X9949825Y-14829674D01*
X9949825Y-14829674D02*
X9968872Y-14820150D01*
X9968872Y-14820150D02*
X9997444Y-14820150D01*
X9997444Y-14820150D02*
X10016491Y-14829674D01*
X10016491Y-14829674D02*
X10026015Y-14848722D01*
X10026015Y-14848722D02*
X10026015Y-14953484D01*
X10416491Y-14743960D02*
X10245063Y-15001103D01*
X10673634Y-14753484D02*
X10692682Y-14753484D01*
X10692682Y-14753484D02*
X10711729Y-14763008D01*
X10711729Y-14763008D02*
X10721253Y-14772531D01*
X10721253Y-14772531D02*
X10730777Y-14791579D01*
X10730777Y-14791579D02*
X10740301Y-14829674D01*
X10740301Y-14829674D02*
X10740301Y-14877293D01*
X10740301Y-14877293D02*
X10730777Y-14915388D01*
X10730777Y-14915388D02*
X10721253Y-14934436D01*
X10721253Y-14934436D02*
X10711729Y-14943960D01*
X10711729Y-14943960D02*
X10692682Y-14953484D01*
X10692682Y-14953484D02*
X10673634Y-14953484D01*
X10673634Y-14953484D02*
X10654587Y-14943960D01*
X10654587Y-14943960D02*
X10645063Y-14934436D01*
X10645063Y-14934436D02*
X10635539Y-14915388D01*
X10635539Y-14915388D02*
X10626015Y-14877293D01*
X10626015Y-14877293D02*
X10626015Y-14829674D01*
X10626015Y-14829674D02*
X10635539Y-14791579D01*
X10635539Y-14791579D02*
X10645063Y-14772531D01*
X10645063Y-14772531D02*
X10654587Y-14763008D01*
X10654587Y-14763008D02*
X10673634Y-14753484D01*
X10826015Y-14934436D02*
X10835539Y-14943960D01*
X10835539Y-14943960D02*
X10826015Y-14953484D01*
X10826015Y-14953484D02*
X10816491Y-14943960D01*
X10816491Y-14943960D02*
X10826015Y-14934436D01*
X10826015Y-14934436D02*
X10826015Y-14953484D01*
X10959348Y-14753484D02*
X10978396Y-14753484D01*
X10978396Y-14753484D02*
X10997444Y-14763008D01*
X10997444Y-14763008D02*
X11006968Y-14772531D01*
X11006968Y-14772531D02*
X11016491Y-14791579D01*
X11016491Y-14791579D02*
X11026015Y-14829674D01*
X11026015Y-14829674D02*
X11026015Y-14877293D01*
X11026015Y-14877293D02*
X11016491Y-14915388D01*
X11016491Y-14915388D02*
X11006968Y-14934436D01*
X11006968Y-14934436D02*
X10997444Y-14943960D01*
X10997444Y-14943960D02*
X10978396Y-14953484D01*
X10978396Y-14953484D02*
X10959348Y-14953484D01*
X10959348Y-14953484D02*
X10940301Y-14943960D01*
X10940301Y-14943960D02*
X10930777Y-14934436D01*
X10930777Y-14934436D02*
X10921253Y-14915388D01*
X10921253Y-14915388D02*
X10911729Y-14877293D01*
X10911729Y-14877293D02*
X10911729Y-14829674D01*
X10911729Y-14829674D02*
X10921253Y-14791579D01*
X10921253Y-14791579D02*
X10930777Y-14772531D01*
X10930777Y-14772531D02*
X10940301Y-14763008D01*
X10940301Y-14763008D02*
X10959348Y-14753484D01*
X11197444Y-14820150D02*
X11197444Y-14953484D01*
X11149825Y-14743960D02*
X11102206Y-14886817D01*
X11102206Y-14886817D02*
X11226015Y-14886817D01*
X11397444Y-14753484D02*
X11302206Y-14753484D01*
X11302206Y-14753484D02*
X11292682Y-14848722D01*
X11292682Y-14848722D02*
X11302206Y-14839198D01*
X11302206Y-14839198D02*
X11321253Y-14829674D01*
X11321253Y-14829674D02*
X11368872Y-14829674D01*
X11368872Y-14829674D02*
X11387920Y-14839198D01*
X11387920Y-14839198D02*
X11397444Y-14848722D01*
X11397444Y-14848722D02*
X11406967Y-14867769D01*
X11406967Y-14867769D02*
X11406967Y-14915388D01*
X11406967Y-14915388D02*
X11397444Y-14934436D01*
X11397444Y-14934436D02*
X11387920Y-14943960D01*
X11387920Y-14943960D02*
X11368872Y-14953484D01*
X11368872Y-14953484D02*
X11321253Y-14953484D01*
X11321253Y-14953484D02*
X11302206Y-14943960D01*
X11302206Y-14943960D02*
X11292682Y-14934436D01*
X11578396Y-14820150D02*
X11578396Y-14953484D01*
X11530777Y-14743960D02*
X11483158Y-14886817D01*
X11483158Y-14886817D02*
X11606967Y-14886817D01*
X11673634Y-14753484D02*
X11673634Y-14791579D01*
X11749825Y-14753484D02*
X11749825Y-14791579D01*
X12045063Y-15029674D02*
X12035539Y-15020150D01*
X12035539Y-15020150D02*
X12016491Y-14991579D01*
X12016491Y-14991579D02*
X12006968Y-14972531D01*
X12006968Y-14972531D02*
X11997444Y-14943960D01*
X11997444Y-14943960D02*
X11987920Y-14896341D01*
X11987920Y-14896341D02*
X11987920Y-14858246D01*
X11987920Y-14858246D02*
X11997444Y-14810627D01*
X11997444Y-14810627D02*
X12006968Y-14782055D01*
X12006968Y-14782055D02*
X12016491Y-14763008D01*
X12016491Y-14763008D02*
X12035539Y-14734436D01*
X12035539Y-14734436D02*
X12045063Y-14724912D01*
X12102206Y-14753484D02*
X12226015Y-14753484D01*
X12226015Y-14753484D02*
X12159348Y-14829674D01*
X12159348Y-14829674D02*
X12187920Y-14829674D01*
X12187920Y-14829674D02*
X12206968Y-14839198D01*
X12206968Y-14839198D02*
X12216491Y-14848722D01*
X12216491Y-14848722D02*
X12226015Y-14867769D01*
X12226015Y-14867769D02*
X12226015Y-14915388D01*
X12226015Y-14915388D02*
X12216491Y-14934436D01*
X12216491Y-14934436D02*
X12206968Y-14943960D01*
X12206968Y-14943960D02*
X12187920Y-14953484D01*
X12187920Y-14953484D02*
X12130777Y-14953484D01*
X12130777Y-14953484D02*
X12111729Y-14943960D01*
X12111729Y-14943960D02*
X12102206Y-14934436D01*
X12464110Y-14953484D02*
X12464110Y-14753484D01*
X12549825Y-14953484D02*
X12549825Y-14848722D01*
X12549825Y-14848722D02*
X12540301Y-14829674D01*
X12540301Y-14829674D02*
X12521253Y-14820150D01*
X12521253Y-14820150D02*
X12492682Y-14820150D01*
X12492682Y-14820150D02*
X12473634Y-14829674D01*
X12473634Y-14829674D02*
X12464110Y-14839198D01*
X12673634Y-14953484D02*
X12654587Y-14943960D01*
X12654587Y-14943960D02*
X12645063Y-14934436D01*
X12645063Y-14934436D02*
X12635539Y-14915388D01*
X12635539Y-14915388D02*
X12635539Y-14858246D01*
X12635539Y-14858246D02*
X12645063Y-14839198D01*
X12645063Y-14839198D02*
X12654587Y-14829674D01*
X12654587Y-14829674D02*
X12673634Y-14820150D01*
X12673634Y-14820150D02*
X12702206Y-14820150D01*
X12702206Y-14820150D02*
X12721253Y-14829674D01*
X12721253Y-14829674D02*
X12730777Y-14839198D01*
X12730777Y-14839198D02*
X12740301Y-14858246D01*
X12740301Y-14858246D02*
X12740301Y-14915388D01*
X12740301Y-14915388D02*
X12730777Y-14934436D01*
X12730777Y-14934436D02*
X12721253Y-14943960D01*
X12721253Y-14943960D02*
X12702206Y-14953484D01*
X12702206Y-14953484D02*
X12673634Y-14953484D01*
X12854587Y-14953484D02*
X12835539Y-14943960D01*
X12835539Y-14943960D02*
X12826015Y-14924912D01*
X12826015Y-14924912D02*
X12826015Y-14753484D01*
X13006968Y-14943960D02*
X12987920Y-14953484D01*
X12987920Y-14953484D02*
X12949825Y-14953484D01*
X12949825Y-14953484D02*
X12930777Y-14943960D01*
X12930777Y-14943960D02*
X12921253Y-14924912D01*
X12921253Y-14924912D02*
X12921253Y-14848722D01*
X12921253Y-14848722D02*
X12930777Y-14829674D01*
X12930777Y-14829674D02*
X12949825Y-14820150D01*
X12949825Y-14820150D02*
X12987920Y-14820150D01*
X12987920Y-14820150D02*
X13006968Y-14829674D01*
X13006968Y-14829674D02*
X13016491Y-14848722D01*
X13016491Y-14848722D02*
X13016491Y-14867769D01*
X13016491Y-14867769D02*
X12921253Y-14886817D01*
X13092682Y-14943960D02*
X13111730Y-14953484D01*
X13111730Y-14953484D02*
X13149825Y-14953484D01*
X13149825Y-14953484D02*
X13168872Y-14943960D01*
X13168872Y-14943960D02*
X13178396Y-14924912D01*
X13178396Y-14924912D02*
X13178396Y-14915388D01*
X13178396Y-14915388D02*
X13168872Y-14896341D01*
X13168872Y-14896341D02*
X13149825Y-14886817D01*
X13149825Y-14886817D02*
X13121253Y-14886817D01*
X13121253Y-14886817D02*
X13102206Y-14877293D01*
X13102206Y-14877293D02*
X13092682Y-14858246D01*
X13092682Y-14858246D02*
X13092682Y-14848722D01*
X13092682Y-14848722D02*
X13102206Y-14829674D01*
X13102206Y-14829674D02*
X13121253Y-14820150D01*
X13121253Y-14820150D02*
X13149825Y-14820150D01*
X13149825Y-14820150D02*
X13168872Y-14829674D01*
X13245063Y-15029674D02*
X13254587Y-15020150D01*
X13254587Y-15020150D02*
X13273634Y-14991579D01*
X13273634Y-14991579D02*
X13283158Y-14972531D01*
X13283158Y-14972531D02*
X13292682Y-14943960D01*
X13292682Y-14943960D02*
X13302206Y-14896341D01*
X13302206Y-14896341D02*
X13302206Y-14858246D01*
X13302206Y-14858246D02*
X13292682Y-14810627D01*
X13292682Y-14810627D02*
X13283158Y-14782055D01*
X13283158Y-14782055D02*
X13273634Y-14763008D01*
X13273634Y-14763008D02*
X13254587Y-14734436D01*
X13254587Y-14734436D02*
X13245063Y-14724912D01*
X13606968Y-15029674D02*
X13597444Y-15020150D01*
X13597444Y-15020150D02*
X13578396Y-14991579D01*
X13578396Y-14991579D02*
X13568872Y-14972531D01*
X13568872Y-14972531D02*
X13559349Y-14943960D01*
X13559349Y-14943960D02*
X13549825Y-14896341D01*
X13549825Y-14896341D02*
X13549825Y-14858246D01*
X13549825Y-14858246D02*
X13559349Y-14810627D01*
X13559349Y-14810627D02*
X13568872Y-14782055D01*
X13568872Y-14782055D02*
X13578396Y-14763008D01*
X13578396Y-14763008D02*
X13597444Y-14734436D01*
X13597444Y-14734436D02*
X13606968Y-14724912D01*
X13683158Y-14820150D02*
X13683158Y-14953484D01*
X13683158Y-14839198D02*
X13692682Y-14829674D01*
X13692682Y-14829674D02*
X13711730Y-14820150D01*
X13711730Y-14820150D02*
X13740301Y-14820150D01*
X13740301Y-14820150D02*
X13759349Y-14829674D01*
X13759349Y-14829674D02*
X13768872Y-14848722D01*
X13768872Y-14848722D02*
X13768872Y-14953484D01*
X13892682Y-14953484D02*
X13873634Y-14943960D01*
X13873634Y-14943960D02*
X13864111Y-14934436D01*
X13864111Y-14934436D02*
X13854587Y-14915388D01*
X13854587Y-14915388D02*
X13854587Y-14858246D01*
X13854587Y-14858246D02*
X13864111Y-14839198D01*
X13864111Y-14839198D02*
X13873634Y-14829674D01*
X13873634Y-14829674D02*
X13892682Y-14820150D01*
X13892682Y-14820150D02*
X13921253Y-14820150D01*
X13921253Y-14820150D02*
X13940301Y-14829674D01*
X13940301Y-14829674D02*
X13949825Y-14839198D01*
X13949825Y-14839198D02*
X13959349Y-14858246D01*
X13959349Y-14858246D02*
X13959349Y-14915388D01*
X13959349Y-14915388D02*
X13949825Y-14934436D01*
X13949825Y-14934436D02*
X13940301Y-14943960D01*
X13940301Y-14943960D02*
X13921253Y-14953484D01*
X13921253Y-14953484D02*
X13892682Y-14953484D01*
X14016492Y-14820150D02*
X14092682Y-14820150D01*
X14045063Y-14753484D02*
X14045063Y-14924912D01*
X14045063Y-14924912D02*
X14054587Y-14943960D01*
X14054587Y-14943960D02*
X14073634Y-14953484D01*
X14073634Y-14953484D02*
X14092682Y-14953484D01*
X14311730Y-14820150D02*
X14311730Y-15020150D01*
X14311730Y-14829674D02*
X14330777Y-14820150D01*
X14330777Y-14820150D02*
X14368873Y-14820150D01*
X14368873Y-14820150D02*
X14387920Y-14829674D01*
X14387920Y-14829674D02*
X14397444Y-14839198D01*
X14397444Y-14839198D02*
X14406968Y-14858246D01*
X14406968Y-14858246D02*
X14406968Y-14915388D01*
X14406968Y-14915388D02*
X14397444Y-14934436D01*
X14397444Y-14934436D02*
X14387920Y-14943960D01*
X14387920Y-14943960D02*
X14368873Y-14953484D01*
X14368873Y-14953484D02*
X14330777Y-14953484D01*
X14330777Y-14953484D02*
X14311730Y-14943960D01*
X14521253Y-14953484D02*
X14502206Y-14943960D01*
X14502206Y-14943960D02*
X14492682Y-14924912D01*
X14492682Y-14924912D02*
X14492682Y-14753484D01*
X14683158Y-14953484D02*
X14683158Y-14848722D01*
X14683158Y-14848722D02*
X14673634Y-14829674D01*
X14673634Y-14829674D02*
X14654587Y-14820150D01*
X14654587Y-14820150D02*
X14616492Y-14820150D01*
X14616492Y-14820150D02*
X14597444Y-14829674D01*
X14683158Y-14943960D02*
X14664111Y-14953484D01*
X14664111Y-14953484D02*
X14616492Y-14953484D01*
X14616492Y-14953484D02*
X14597444Y-14943960D01*
X14597444Y-14943960D02*
X14587920Y-14924912D01*
X14587920Y-14924912D02*
X14587920Y-14905865D01*
X14587920Y-14905865D02*
X14597444Y-14886817D01*
X14597444Y-14886817D02*
X14616492Y-14877293D01*
X14616492Y-14877293D02*
X14664111Y-14877293D01*
X14664111Y-14877293D02*
X14683158Y-14867769D01*
X14749825Y-14820150D02*
X14826015Y-14820150D01*
X14778396Y-14753484D02*
X14778396Y-14924912D01*
X14778396Y-14924912D02*
X14787920Y-14943960D01*
X14787920Y-14943960D02*
X14806968Y-14953484D01*
X14806968Y-14953484D02*
X14826015Y-14953484D01*
X14968873Y-14943960D02*
X14949825Y-14953484D01*
X14949825Y-14953484D02*
X14911730Y-14953484D01*
X14911730Y-14953484D02*
X14892682Y-14943960D01*
X14892682Y-14943960D02*
X14883158Y-14924912D01*
X14883158Y-14924912D02*
X14883158Y-14848722D01*
X14883158Y-14848722D02*
X14892682Y-14829674D01*
X14892682Y-14829674D02*
X14911730Y-14820150D01*
X14911730Y-14820150D02*
X14949825Y-14820150D01*
X14949825Y-14820150D02*
X14968873Y-14829674D01*
X14968873Y-14829674D02*
X14978396Y-14848722D01*
X14978396Y-14848722D02*
X14978396Y-14867769D01*
X14978396Y-14867769D02*
X14883158Y-14886817D01*
X15149825Y-14953484D02*
X15149825Y-14753484D01*
X15149825Y-14943960D02*
X15130777Y-14953484D01*
X15130777Y-14953484D02*
X15092682Y-14953484D01*
X15092682Y-14953484D02*
X15073634Y-14943960D01*
X15073634Y-14943960D02*
X15064111Y-14934436D01*
X15064111Y-14934436D02*
X15054587Y-14915388D01*
X15054587Y-14915388D02*
X15054587Y-14858246D01*
X15054587Y-14858246D02*
X15064111Y-14839198D01*
X15064111Y-14839198D02*
X15073634Y-14829674D01*
X15073634Y-14829674D02*
X15092682Y-14820150D01*
X15092682Y-14820150D02*
X15130777Y-14820150D01*
X15130777Y-14820150D02*
X15149825Y-14829674D01*
X15226015Y-15029674D02*
X15235539Y-15020150D01*
X15235539Y-15020150D02*
X15254587Y-14991579D01*
X15254587Y-14991579D02*
X15264111Y-14972531D01*
X15264111Y-14972531D02*
X15273634Y-14943960D01*
X15273634Y-14943960D02*
X15283158Y-14896341D01*
X15283158Y-14896341D02*
X15283158Y-14858246D01*
X15283158Y-14858246D02*
X15273634Y-14810627D01*
X15273634Y-14810627D02*
X15264111Y-14782055D01*
X15264111Y-14782055D02*
X15254587Y-14763008D01*
X15254587Y-14763008D02*
X15235539Y-14734436D01*
X15235539Y-14734436D02*
X15226015Y-14724912D01*
M02*
