G04 #@! TF.GenerationSoftware,KiCad,Pcbnew,7.0.7*
G04 #@! TF.CreationDate,2023-09-04T22:31:34-04:00*
G04 #@! TF.ProjectId,k1-aioc,6b312d61-696f-4632-9e6b-696361645f70,rev?*
G04 #@! TF.SameCoordinates,Original*
G04 #@! TF.FileFunction,Legend,Top*
G04 #@! TF.FilePolarity,Positive*
%FSLAX46Y46*%
G04 Gerber Fmt 4.6, Leading zero omitted, Abs format (unit mm)*
G04 Created by KiCad (PCBNEW 7.0.7) date 2023-09-04 22:31:34*
%MOMM*%
%LPD*%
G01*
G04 APERTURE LIST*
%ADD10C,0.200000*%
%ADD11C,0.120000*%
G04 APERTURE END LIST*
D10*
X87100000Y-93500000D02*
G75*
G03*
X87100000Y-93500000I-100000J0D01*
G01*
D11*
G04 #@! TO.C,C6*
X86990000Y-104390580D02*
X86990000Y-104109420D01*
X88010000Y-104390580D02*
X88010000Y-104109420D01*
G04 #@! TO.C,R2*
X100663641Y-114880000D02*
X100356359Y-114880000D01*
X100663641Y-114120000D02*
X100356359Y-114120000D01*
G04 #@! TO.C,D2*
X88235000Y-117385000D02*
X88235000Y-115915000D01*
X88235000Y-115915000D02*
X85950000Y-115915000D01*
X85950000Y-117385000D02*
X88235000Y-117385000D01*
G04 #@! TO.C,C11*
X100057836Y-105710000D02*
X99842164Y-105710000D01*
X100057836Y-104990000D02*
X99842164Y-104990000D01*
G04 #@! TO.C,R15*
X86396359Y-113470000D02*
X86703641Y-113470000D01*
X86396359Y-114230000D02*
X86703641Y-114230000D01*
G04 #@! TO.C,J1*
X97500000Y-102120000D02*
X97500000Y-94860000D01*
X97500000Y-102120000D02*
X96000000Y-102120000D01*
X89500000Y-102120000D02*
X88000000Y-102120000D01*
X88000000Y-102120000D02*
X88000000Y-94860000D01*
G04 #@! TO.C,R21*
X98196359Y-124270000D02*
X98503641Y-124270000D01*
X98196359Y-125030000D02*
X98503641Y-125030000D01*
G04 #@! TO.C,C1*
X87842164Y-121890000D02*
X88057836Y-121890000D01*
X87842164Y-122610000D02*
X88057836Y-122610000D01*
G04 #@! TO.C,R22*
X92703641Y-119230000D02*
X92396359Y-119230000D01*
X92703641Y-118470000D02*
X92396359Y-118470000D01*
G04 #@! TO.C,D1*
X85265000Y-114315000D02*
X85265000Y-115785000D01*
X85265000Y-115785000D02*
X87550000Y-115785000D01*
X87550000Y-114315000D02*
X85265000Y-114315000D01*
G04 #@! TO.C,C9*
X95510000Y-118342164D02*
X95510000Y-118557836D01*
X94790000Y-118342164D02*
X94790000Y-118557836D01*
G04 #@! TO.C,R18*
X96296359Y-123170000D02*
X96603641Y-123170000D01*
X96296359Y-123930000D02*
X96603641Y-123930000D01*
G04 #@! TO.C,C12*
X102402164Y-115140000D02*
X102617836Y-115140000D01*
X102402164Y-115860000D02*
X102617836Y-115860000D01*
G04 #@! TO.C,J4*
X95310000Y-128360000D02*
X95310000Y-127110000D01*
X95010000Y-128060000D02*
X95010000Y-123340000D01*
X95010000Y-126750000D02*
X94400000Y-126750000D01*
X95010000Y-125450000D02*
X94400000Y-125450000D01*
X95010000Y-123340000D02*
X84890000Y-123340000D01*
X94400000Y-127450000D02*
X94400000Y-123950000D01*
X94400000Y-123950000D02*
X85500000Y-123950000D01*
X94060000Y-128360000D02*
X95310000Y-128360000D01*
X93550000Y-128260000D02*
X93550000Y-128060000D01*
X93250000Y-128260000D02*
X93550000Y-128260000D01*
X93250000Y-128160000D02*
X93550000Y-128160000D01*
X93250000Y-128060000D02*
X93250000Y-128260000D01*
X92450000Y-128060000D02*
X92450000Y-127450000D01*
X92450000Y-127450000D02*
X94400000Y-127450000D01*
X92050000Y-124450000D02*
X91850000Y-124450000D01*
X92050000Y-123950000D02*
X92050000Y-124450000D01*
X91950000Y-123950000D02*
X91950000Y-124450000D01*
X91850000Y-124450000D02*
X91850000Y-123950000D01*
X90050000Y-124450000D02*
X89850000Y-124450000D01*
X90050000Y-123950000D02*
X90050000Y-124450000D01*
X89950000Y-123950000D02*
X89950000Y-124450000D01*
X89850000Y-124450000D02*
X89850000Y-123950000D01*
X88050000Y-124450000D02*
X87850000Y-124450000D01*
X88050000Y-123950000D02*
X88050000Y-124450000D01*
X87950000Y-123950000D02*
X87950000Y-124450000D01*
X87850000Y-124450000D02*
X87850000Y-123950000D01*
X87450000Y-127450000D02*
X87450000Y-128060000D01*
X85500000Y-127450000D02*
X87450000Y-127450000D01*
X85500000Y-123950000D02*
X85500000Y-127450000D01*
X84890000Y-128060000D02*
X95010000Y-128060000D01*
X84890000Y-126750000D02*
X85500000Y-126750000D01*
X84890000Y-125450000D02*
X85500000Y-125450000D01*
X84890000Y-123340000D02*
X84890000Y-128060000D01*
G04 #@! TO.C,R13*
X99530000Y-118296359D02*
X99530000Y-118603641D01*
X98770000Y-118296359D02*
X98770000Y-118603641D01*
G04 #@! TO.C,FB2*
X88490000Y-104412779D02*
X88490000Y-104087221D01*
X89510000Y-104412779D02*
X89510000Y-104087221D01*
G04 #@! TO.C,R8*
X96380000Y-104596359D02*
X96380000Y-104903641D01*
X95620000Y-104596359D02*
X95620000Y-104903641D01*
G04 #@! TO.C,R11*
X97530000Y-118296359D02*
X97530000Y-118603641D01*
X96770000Y-118296359D02*
X96770000Y-118603641D01*
G04 #@! TO.C,R9*
X94880000Y-104596359D02*
X94880000Y-104903641D01*
X94120000Y-104596359D02*
X94120000Y-104903641D01*
G04 #@! TO.C,J3*
X89390000Y-129140000D02*
X89390000Y-130390000D01*
X89690000Y-129440000D02*
X89690000Y-134160000D01*
X89690000Y-130750000D02*
X90300000Y-130750000D01*
X89690000Y-132050000D02*
X90300000Y-132050000D01*
X89690000Y-134160000D02*
X97810000Y-134160000D01*
X90300000Y-130050000D02*
X90300000Y-133550000D01*
X90300000Y-133550000D02*
X97200000Y-133550000D01*
X90640000Y-129140000D02*
X89390000Y-129140000D01*
X91150000Y-129240000D02*
X91150000Y-129440000D01*
X91450000Y-129240000D02*
X91150000Y-129240000D01*
X91450000Y-129340000D02*
X91150000Y-129340000D01*
X91450000Y-129440000D02*
X91450000Y-129240000D01*
X92250000Y-129440000D02*
X92250000Y-130050000D01*
X92250000Y-130050000D02*
X90300000Y-130050000D01*
X92650000Y-133050000D02*
X92850000Y-133050000D01*
X92650000Y-133550000D02*
X92650000Y-133050000D01*
X92750000Y-133550000D02*
X92750000Y-133050000D01*
X92850000Y-133050000D02*
X92850000Y-133550000D01*
X94650000Y-133050000D02*
X94850000Y-133050000D01*
X94650000Y-133550000D02*
X94650000Y-133050000D01*
X94750000Y-133550000D02*
X94750000Y-133050000D01*
X94850000Y-133050000D02*
X94850000Y-133550000D01*
X95250000Y-130050000D02*
X95250000Y-129440000D01*
X97200000Y-130050000D02*
X95250000Y-130050000D01*
X97200000Y-133550000D02*
X97200000Y-130050000D01*
X97810000Y-129440000D02*
X89690000Y-129440000D01*
X97810000Y-130750000D02*
X97200000Y-130750000D01*
X97810000Y-132050000D02*
X97200000Y-132050000D01*
X97810000Y-134160000D02*
X97810000Y-129440000D01*
G04 #@! TO.C,U2*
X90390000Y-115610000D02*
X90840000Y-115610000D01*
X90840000Y-115610000D02*
X90840000Y-116900000D01*
X97610000Y-115610000D02*
X97160000Y-115610000D01*
X90390000Y-115160000D02*
X90390000Y-115610000D01*
X97610000Y-115160000D02*
X97610000Y-115610000D01*
X90390000Y-108840000D02*
X90390000Y-108390000D01*
X97610000Y-108840000D02*
X97610000Y-108390000D01*
X90390000Y-108390000D02*
X90840000Y-108390000D01*
X97610000Y-108390000D02*
X97160000Y-108390000D01*
G04 #@! TO.C,R20*
X98503641Y-123930000D02*
X98196359Y-123930000D01*
X98503641Y-123170000D02*
X98196359Y-123170000D01*
G04 #@! TO.C,R4*
X102663641Y-114880000D02*
X102356359Y-114880000D01*
X102663641Y-114120000D02*
X102356359Y-114120000D01*
G04 #@! TO.C,FB1*
X86990000Y-110912779D02*
X86990000Y-110587221D01*
X88010000Y-110912779D02*
X88010000Y-110587221D01*
G04 #@! TO.C,C3*
X85640000Y-104357836D02*
X85640000Y-104142164D01*
X86360000Y-104357836D02*
X86360000Y-104142164D01*
G04 #@! TO.C,C2*
X90057836Y-122610000D02*
X89842164Y-122610000D01*
X90057836Y-121890000D02*
X89842164Y-121890000D01*
G04 #@! TO.C,R10*
X96530000Y-118296359D02*
X96530000Y-118603641D01*
X95770000Y-118296359D02*
X95770000Y-118603641D01*
G04 #@! TO.C,C4*
X88490000Y-107390580D02*
X88490000Y-107109420D01*
X89510000Y-107390580D02*
X89510000Y-107109420D01*
G04 #@! TO.C,Q4*
X97450000Y-128610000D02*
X99125000Y-128610000D01*
X97450000Y-128610000D02*
X96800000Y-128610000D01*
X97450000Y-125490000D02*
X98100000Y-125490000D01*
X97450000Y-125490000D02*
X96800000Y-125490000D01*
G04 #@! TO.C,R1*
X91846359Y-104370000D02*
X92153641Y-104370000D01*
X91846359Y-105130000D02*
X92153641Y-105130000D01*
G04 #@! TO.C,C5*
X86510000Y-110609420D02*
X86510000Y-110890580D01*
X85490000Y-110609420D02*
X85490000Y-110890580D01*
G04 #@! TO.C,Q1*
X93350000Y-119690000D02*
X91675000Y-119690000D01*
X93350000Y-119690000D02*
X94000000Y-119690000D01*
X93350000Y-122810000D02*
X92700000Y-122810000D01*
X93350000Y-122810000D02*
X94000000Y-122810000D01*
G04 #@! TO.C,C14*
X103409420Y-104440000D02*
X103690580Y-104440000D01*
X103409420Y-105460000D02*
X103690580Y-105460000D01*
G04 #@! TO.C,R17*
X100663641Y-115880000D02*
X100356359Y-115880000D01*
X100663641Y-115120000D02*
X100356359Y-115120000D01*
G04 #@! TO.C,R5*
X99796359Y-103970000D02*
X100103641Y-103970000D01*
X99796359Y-104730000D02*
X100103641Y-104730000D01*
G04 #@! TO.C,R23*
X89470000Y-116903641D02*
X89470000Y-116596359D01*
X90230000Y-116903641D02*
X90230000Y-116596359D01*
G04 #@! TO.C,C15*
X94460000Y-118342164D02*
X94460000Y-118557836D01*
X93740000Y-118342164D02*
X93740000Y-118557836D01*
G04 #@! TO.C,C7*
X100859420Y-112740000D02*
X101140580Y-112740000D01*
X100859420Y-113760000D02*
X101140580Y-113760000D01*
G04 #@! TO.C,C8*
X89210000Y-116642164D02*
X89210000Y-116857836D01*
X88490000Y-116642164D02*
X88490000Y-116857836D01*
G04 #@! TO.C,U1*
X85640000Y-106500000D02*
X85640000Y-108500000D01*
X87860000Y-107500000D02*
X87860000Y-108500000D01*
G04 #@! TO.C,R16*
X99846359Y-105970000D02*
X100153641Y-105970000D01*
X99846359Y-106730000D02*
X100153641Y-106730000D01*
G04 #@! TO.C,R19*
X96603641Y-125030000D02*
X96296359Y-125030000D01*
X96603641Y-124270000D02*
X96296359Y-124270000D01*
G04 #@! TO.C,R3*
X99846359Y-106970000D02*
X100153641Y-106970000D01*
X99846359Y-107730000D02*
X100153641Y-107730000D01*
G04 #@! TO.C,C10*
X96990000Y-104890580D02*
X96990000Y-104609420D01*
X98010000Y-104890580D02*
X98010000Y-104609420D01*
G04 #@! TO.C,R14*
X86396359Y-112470000D02*
X86703641Y-112470000D01*
X86396359Y-113230000D02*
X86703641Y-113230000D01*
G04 #@! TO.C,R6*
X98270000Y-100403641D02*
X98270000Y-100096359D01*
X99030000Y-100403641D02*
X99030000Y-100096359D01*
G04 #@! TO.C,C13*
X101010000Y-118359420D02*
X101010000Y-118640580D01*
X99990000Y-118359420D02*
X99990000Y-118640580D01*
G04 #@! TO.C,Y1*
X85100000Y-117850000D02*
X85100000Y-121450000D01*
X85100000Y-121450000D02*
X90850000Y-121450000D01*
X90850000Y-117850000D02*
X85100000Y-117850000D01*
G04 #@! TO.C,R12*
X98530000Y-118296359D02*
X98530000Y-118603641D01*
X97770000Y-118296359D02*
X97770000Y-118603641D01*
G04 #@! TO.C,R7*
X99030000Y-101996359D02*
X99030000Y-102303641D01*
X98270000Y-101996359D02*
X98270000Y-102303641D01*
G04 #@! TO.C,Q3*
X97350000Y-119690000D02*
X95675000Y-119690000D01*
X97350000Y-119690000D02*
X98000000Y-119690000D01*
X97350000Y-122810000D02*
X96700000Y-122810000D01*
X97350000Y-122810000D02*
X98000000Y-122810000D01*
G04 #@! TD*
M02*
